G04 #@! TF.GenerationSoftware,KiCad,Pcbnew,9.0.2*
G04 #@! TF.CreationDate,2025-06-24T15:08:32-04:00*
G04 #@! TF.ProjectId,uconsole-expansion-card-template,75636f6e-736f-46c6-952d-657870616e73,0.1*
G04 #@! TF.SameCoordinates,Original*
G04 #@! TF.FileFunction,Profile,NP*
%FSLAX46Y46*%
G04 Gerber Fmt 4.6, Leading zero omitted, Abs format (unit mm)*
G04 Created by KiCad (PCBNEW 9.0.2) date 2025-06-24 15:08:32*
%MOMM*%
%LPD*%
G01*
G04 APERTURE LIST*
G04 #@! TA.AperFunction,Profile*
%ADD10C,0.200000*%
G04 #@! TD*
G04 APERTURE END LIST*
D10*
X83615000Y-113350000D02*
G75*
G02*
X82615000Y-112350000I0J1000000D01*
G01*
X116885000Y-139000000D02*
X87885000Y-139000000D01*
X116885000Y-62000000D02*
G75*
G02*
X118385000Y-63500000I0J-1500000D01*
G01*
X82615000Y-88650000D02*
G75*
G02*
X83615000Y-87650000I1000000J0D01*
G01*
X83615000Y-87650000D02*
X85885000Y-87650000D01*
X86385000Y-137500000D02*
X86385000Y-113850000D01*
X86385000Y-87150000D02*
X86385000Y-63500000D01*
X82615000Y-112350000D02*
X82615000Y-97920000D01*
X87885000Y-62000000D02*
X116885000Y-62000000D01*
X118385000Y-63500000D02*
X118385000Y-137500000D01*
X82615000Y-97920000D02*
G75*
G02*
X83115000Y-97420000I500000J0D01*
G01*
X85615000Y-95920000D02*
G75*
G02*
X85615000Y-97420000I0J-750000D01*
G01*
X86385000Y-87150000D02*
G75*
G02*
X85885000Y-87650000I-500000J0D01*
G01*
X85615000Y-97420000D02*
X83115000Y-97420000D01*
X83115000Y-95920000D02*
G75*
G02*
X82615000Y-95420000I0J500000D01*
G01*
X86385000Y-63500000D02*
G75*
G02*
X87885000Y-62000000I1500000J0D01*
G01*
X82615000Y-95420000D02*
X82615000Y-88650000D01*
X85885000Y-113350000D02*
G75*
G02*
X86385000Y-113850000I0J-500000D01*
G01*
X85885000Y-113350000D02*
X83615000Y-113350000D01*
X83115000Y-95920000D02*
X85615000Y-95920000D01*
X87885000Y-139000000D02*
G75*
G02*
X86385000Y-137500000I0J1500000D01*
G01*
X118385000Y-137500000D02*
G75*
G02*
X116885000Y-139000000I-1500000J0D01*
G01*
M02*
