G04 #@! TF.GenerationSoftware,KiCad,Pcbnew,9.0.2*
G04 #@! TF.CreationDate,2025-06-24T15:08:32-04:00*
G04 #@! TF.ProjectId,uconsole-expansion-card-template,75636f6e-736f-46c6-952d-657870616e73,0.1*
G04 #@! TF.SameCoordinates,Original*
G04 #@! TF.FileFunction,Soldermask,Top*
G04 #@! TF.FilePolarity,Negative*
%FSLAX46Y46*%
G04 Gerber Fmt 4.6, Leading zero omitted, Abs format (unit mm)*
G04 Created by KiCad (PCBNEW 9.0.2) date 2025-06-24 15:08:32*
%MOMM*%
%LPD*%
G01*
G04 APERTURE LIST*
%ADD10C,0.100000*%
%ADD11C,1.400000*%
%ADD12R,2.300000X0.600000*%
%ADD13C,5.000000*%
%ADD14R,0.300000X1.300000*%
%ADD15R,1.800000X2.200000*%
%ADD16R,1.700000X1.700000*%
%ADD17C,1.700000*%
G04 APERTURE END LIST*
D10*
X85119600Y-113962000D02*
X82224000Y-113962000D01*
X82224000Y-87292000D01*
X85119600Y-87292000D01*
X85119600Y-113962000D01*
G36*
X85119600Y-113962000D02*
G01*
X82224000Y-113962000D01*
X82224000Y-87292000D01*
X85119600Y-87292000D01*
X85119600Y-113962000D01*
G37*
D11*
X99340000Y-105250000D03*
X94260000Y-105250000D03*
D12*
X84015000Y-88720000D03*
X84015000Y-89520000D03*
X84015000Y-90320000D03*
X84015000Y-91120000D03*
X84015000Y-91920000D03*
X84015000Y-92720000D03*
X84015000Y-93520000D03*
X84015000Y-94320000D03*
X84015000Y-98320000D03*
X84015000Y-99120000D03*
X84015000Y-99920000D03*
X84015000Y-100720000D03*
X84015000Y-101520000D03*
X84015000Y-102320000D03*
X84015000Y-103120000D03*
X84015000Y-103920000D03*
X84015000Y-104720000D03*
X84015000Y-105520000D03*
X84015000Y-106320000D03*
X84015000Y-107120000D03*
X84015000Y-107920000D03*
X84015000Y-108720000D03*
X84015000Y-109520000D03*
X84015000Y-110320000D03*
X84015000Y-111120000D03*
X84015000Y-111920000D03*
D13*
X111385000Y-133000000D03*
D14*
X92050000Y-126750000D03*
X92550000Y-126750000D03*
X93050000Y-126750000D03*
X93550000Y-126750000D03*
X94050000Y-126750000D03*
X94550000Y-126750000D03*
X95050000Y-126750000D03*
X95550000Y-126750000D03*
X96050000Y-126750000D03*
X96550000Y-126750000D03*
X97050000Y-126750000D03*
X97550000Y-126750000D03*
X98050000Y-126750000D03*
X98550000Y-126750000D03*
X99050000Y-126750000D03*
X99550000Y-126750000D03*
X100050000Y-126750000D03*
X100550000Y-126750000D03*
X101050000Y-126750000D03*
X101550000Y-126750000D03*
X102050000Y-126750000D03*
X102550000Y-126750000D03*
D15*
X90150000Y-130000000D03*
X104450000Y-130000000D03*
D11*
X99340000Y-102100000D03*
X94260000Y-102100000D03*
D13*
X111385000Y-68000000D03*
D16*
X106875000Y-76950000D03*
D17*
X109415000Y-76950000D03*
X106875000Y-79490000D03*
X109415000Y-79490000D03*
X106875000Y-82030000D03*
X109415000Y-82030000D03*
X106875000Y-84570000D03*
X109415000Y-84570000D03*
X106875000Y-87110000D03*
X109415000Y-87110000D03*
X106875000Y-89650000D03*
X109415000Y-89650000D03*
X106875000Y-92190000D03*
X109415000Y-92190000D03*
X106875000Y-94730000D03*
X109415000Y-94730000D03*
X106875000Y-97270000D03*
X109415000Y-97270000D03*
X106875000Y-99810000D03*
X109415000Y-99810000D03*
X106875000Y-102350000D03*
X109415000Y-102350000D03*
X106875000Y-104890000D03*
X109415000Y-104890000D03*
X106875000Y-107430000D03*
X109415000Y-107430000D03*
X106875000Y-109970000D03*
X109415000Y-109970000D03*
X106875000Y-112510000D03*
X109415000Y-112510000D03*
X106875000Y-115050000D03*
X109415000Y-115050000D03*
M02*
