M48
; DRILL file {KiCad 9.0.2} date 2025-06-23T14:55:50-0400
; FORMAT={-:-/ absolute / metric / decimal}
; #@! TF.CreationDate,2025-06-23T14:55:50-04:00
; #@! TF.GenerationSoftware,Kicad,Pcbnew,9.0.2
; #@! TF.FileFunction,Plated,1,2,PTH
FMAT,2
METRIC
; #@! TA.AperFunction,Plated,PTH,ViaDrill
T1C0.400
; #@! TA.AperFunction,Plated,PTH,ComponentDrill
T2C0.700
; #@! TA.AperFunction,Plated,PTH,ComponentDrill
T3C1.000
%
G90
G05
T1
X95.0Y-79.75
X96.175Y-89.474
X96.973Y-81.5
X97.0Y-79.75
X97.137Y-90.386
X99.705Y-80.071
X100.425Y-79.087
X101.816Y-91.811
X101.832Y-87.21
X103.75Y-79.425
X104.416Y-114.138
X104.522Y-83.513
X105.418Y-86.191
X107.672Y-88.214
X108.4Y-110.008
X108.563Y-94.761
X108.815Y-89.785
X108.84Y-130.32
X108.964Y-86.794
X109.639Y-82.642
X110.72Y-89.71
X111.353Y-91.246
X111.924Y-106.98
X112.227Y-128.95
X114.706Y-108.045
T2
X100.21Y-89.6
X100.21Y-92.75
X105.29Y-89.6
X105.29Y-92.75
T3
X91.085Y-85.45
X91.085Y-87.99
X91.085Y-90.53
X91.085Y-93.07
X91.085Y-95.61
X91.085Y-98.15
X91.085Y-100.69
X91.085Y-103.23
X91.085Y-105.77
X91.085Y-108.31
X91.085Y-110.85
X91.085Y-113.39
X91.085Y-115.93
X91.085Y-118.47
X91.085Y-121.01
X91.085Y-123.55
X93.625Y-85.45
X93.625Y-87.99
X93.625Y-90.53
X93.625Y-93.07
X93.625Y-95.61
X93.625Y-98.15
X93.625Y-100.69
X93.625Y-103.23
X93.625Y-105.77
X93.625Y-108.31
X93.625Y-110.85
X93.625Y-113.39
X93.625Y-115.93
X93.625Y-118.47
X93.625Y-121.01
X93.625Y-123.55
M30
