%TF.GenerationSoftware,KiCad,Pcbnew,9.0.2*%
%TF.CreationDate,2025-06-24T15:08:36-04:00*%
%TF.ProjectId,uconsole-expansion-card-template,75636f6e-736f-46c6-952d-657870616e73,0.1*%
%TF.SameCoordinates,Original*%
%TF.FileFunction,Drillmap*%
%TF.FilePolarity,Positive*%
%FSLAX45Y45*%
G04 Gerber Fmt 4.5, Leading zero omitted, Abs format (unit mm)*
G04 Created by KiCad (PCBNEW 9.0.2) date 2025-06-24 15:08:36*
%MOMM*%
%LPD*%
G01*
G04 APERTURE LIST*
%ADD10C,0.200000*%
%ADD11C,0.100000*%
G04 APERTURE END LIST*
D10*
X8361500Y-11335000D02*
G75*
G02*
X8261500Y-11235000I0J100000D01*
G01*
X11688500Y-13900000D02*
X8788500Y-13900000D01*
X11688500Y-6200000D02*
G75*
G02*
X11838500Y-6350000I0J-150000D01*
G01*
X8261500Y-8865000D02*
G75*
G02*
X8361500Y-8765000I100000J0D01*
G01*
X8361500Y-8765000D02*
X8588500Y-8765000D01*
X8638500Y-13750000D02*
X8638500Y-11385000D01*
X8638500Y-8715000D02*
X8638500Y-6350000D01*
X8261500Y-11235000D02*
X8261500Y-9792000D01*
X8788500Y-6200000D02*
X11688500Y-6200000D01*
X11838500Y-6350000D02*
X11838500Y-13750000D01*
X8261500Y-9792000D02*
G75*
G02*
X8311500Y-9742000I50000J0D01*
G01*
X8561500Y-9592000D02*
G75*
G02*
X8561500Y-9742000I0J-75000D01*
G01*
X8638500Y-8715000D02*
G75*
G02*
X8588500Y-8765000I-50000J0D01*
G01*
X8561500Y-9742000D02*
X8311500Y-9742000D01*
X8311500Y-9592000D02*
G75*
G02*
X8261500Y-9542000I0J50000D01*
G01*
X8638500Y-6350000D02*
G75*
G02*
X8788500Y-6200000I150000J0D01*
G01*
X8261500Y-9542000D02*
X8261500Y-8865000D01*
X8588500Y-11335000D02*
G75*
G02*
X8638500Y-11385000I0J-50000D01*
G01*
X8588500Y-11335000D02*
X8361500Y-11335000D01*
X8311500Y-9592000D02*
X8561500Y-9592000D01*
X8788500Y-13900000D02*
G75*
G02*
X8638500Y-13750000I0J150000D01*
G01*
X11838500Y-13750000D02*
G75*
G02*
X11688500Y-13900000I-150000J0D01*
G01*
D11*
X8551850Y-9774330D02*
X8571850Y-9794330D01*
X8571850Y-9774330D02*
X8551850Y-9794330D01*
X8562750Y-9273740D02*
X8582750Y-9293740D01*
X8582750Y-9273740D02*
X8562750Y-9293740D01*
X8571580Y-10689920D02*
X8591580Y-10709920D01*
X8591580Y-10689920D02*
X8571580Y-10709920D01*
X8660760Y-10546950D02*
X8680760Y-10566950D01*
X8680760Y-10546950D02*
X8660760Y-10566950D01*
X8667770Y-10893410D02*
X8687770Y-10913410D01*
X8687770Y-10893410D02*
X8667770Y-10913410D01*
X8742660Y-9437760D02*
X8762660Y-9457760D01*
X8762660Y-9437760D02*
X8742660Y-9457760D01*
X8769226Y-10407774D02*
X8789226Y-10427774D01*
X8789226Y-10407774D02*
X8769226Y-10427774D01*
X8791000Y-7051400D02*
X8811000Y-7071400D01*
X8811000Y-7051400D02*
X8791000Y-7071400D01*
X8834550Y-9534800D02*
X8854550Y-9554800D01*
X8854550Y-9534800D02*
X8834550Y-9554800D01*
X8873000Y-6724000D02*
X8893000Y-6744000D01*
X8893000Y-6724000D02*
X8873000Y-6744000D01*
X8918705Y-10561705D02*
X8938705Y-10581705D01*
X8938705Y-10561705D02*
X8918705Y-10581705D01*
X8986580Y-9193920D02*
X9006580Y-9213920D01*
X9006580Y-9193920D02*
X8986580Y-9213920D01*
X9059436Y-10501985D02*
X9079436Y-10521985D01*
X9079436Y-10501985D02*
X9059436Y-10521985D01*
X9112780Y-10377850D02*
X9132780Y-10397850D01*
X9132780Y-10377850D02*
X9112780Y-10397850D01*
X9196060Y-10348600D02*
X9216060Y-10368600D01*
X9216060Y-10348600D02*
X9196060Y-10368600D01*
X9371551Y-10814099D02*
X9391551Y-10834099D01*
X9391551Y-10814099D02*
X9371551Y-10834099D01*
X9462160Y-10625870D02*
X9482160Y-10645870D01*
X9482160Y-10625870D02*
X9462160Y-10645870D01*
X9690950Y-8674800D02*
X9710950Y-8694800D01*
X9710950Y-8674800D02*
X9690950Y-8694800D01*
X9831000Y-10372000D02*
X9851000Y-10392000D01*
X9851000Y-10372000D02*
X9831000Y-10392000D01*
X9965600Y-12281240D02*
X9985600Y-12301240D01*
X9985600Y-12281240D02*
X9965600Y-12301240D01*
X10324610Y-12621810D02*
X10344610Y-12641810D01*
X10344610Y-12621810D02*
X10324610Y-12641810D01*
X9461000Y-10210000D02*
G75*
G02*
X9391000Y-10210000I-35000J0D01*
G01*
X9391000Y-10210000D02*
G75*
G02*
X9461000Y-10210000I35000J0D01*
G01*
X9461000Y-10525000D02*
G75*
G02*
X9391000Y-10525000I-35000J0D01*
G01*
X9391000Y-10525000D02*
G75*
G02*
X9461000Y-10525000I35000J0D01*
G01*
X9969000Y-10210000D02*
G75*
G02*
X9899000Y-10210000I-35000J0D01*
G01*
X9899000Y-10210000D02*
G75*
G02*
X9969000Y-10210000I35000J0D01*
G01*
X9969000Y-10525000D02*
G75*
G02*
X9899000Y-10525000I-35000J0D01*
G01*
X9899000Y-10525000D02*
G75*
G02*
X9969000Y-10525000I35000J0D01*
G01*
X10687500Y-7645000D02*
X10687500Y-7745000D01*
X10637500Y-7695000D02*
X10737500Y-7695000D01*
X10687500Y-7899000D02*
X10687500Y-7999000D01*
X10637500Y-7949000D02*
X10737500Y-7949000D01*
X10687500Y-8153000D02*
X10687500Y-8253000D01*
X10637500Y-8203000D02*
X10737500Y-8203000D01*
X10687500Y-8407000D02*
X10687500Y-8507000D01*
X10637500Y-8457000D02*
X10737500Y-8457000D01*
X10687500Y-8661000D02*
X10687500Y-8761000D01*
X10637500Y-8711000D02*
X10737500Y-8711000D01*
X10687500Y-8915000D02*
X10687500Y-9015000D01*
X10637500Y-8965000D02*
X10737500Y-8965000D01*
X10687500Y-9169000D02*
X10687500Y-9269000D01*
X10637500Y-9219000D02*
X10737500Y-9219000D01*
X10687500Y-9423000D02*
X10687500Y-9523000D01*
X10637500Y-9473000D02*
X10737500Y-9473000D01*
X10687500Y-9677000D02*
X10687500Y-9777000D01*
X10637500Y-9727000D02*
X10737500Y-9727000D01*
X10687500Y-9931000D02*
X10687500Y-10031000D01*
X10637500Y-9981000D02*
X10737500Y-9981000D01*
X10687500Y-10185000D02*
X10687500Y-10285000D01*
X10637500Y-10235000D02*
X10737500Y-10235000D01*
X10687500Y-10439000D02*
X10687500Y-10539000D01*
X10637500Y-10489000D02*
X10737500Y-10489000D01*
X10687500Y-10693000D02*
X10687500Y-10793000D01*
X10637500Y-10743000D02*
X10737500Y-10743000D01*
X10687500Y-10947000D02*
X10687500Y-11047000D01*
X10637500Y-10997000D02*
X10737500Y-10997000D01*
X10687500Y-11201000D02*
X10687500Y-11301000D01*
X10637500Y-11251000D02*
X10737500Y-11251000D01*
X10687500Y-11455000D02*
X10687500Y-11555000D01*
X10637500Y-11505000D02*
X10737500Y-11505000D01*
X10941500Y-7645000D02*
X10941500Y-7745000D01*
X10891500Y-7695000D02*
X10991500Y-7695000D01*
X10941500Y-7899000D02*
X10941500Y-7999000D01*
X10891500Y-7949000D02*
X10991500Y-7949000D01*
X10941500Y-8153000D02*
X10941500Y-8253000D01*
X10891500Y-8203000D02*
X10991500Y-8203000D01*
X10941500Y-8407000D02*
X10941500Y-8507000D01*
X10891500Y-8457000D02*
X10991500Y-8457000D01*
X10941500Y-8661000D02*
X10941500Y-8761000D01*
X10891500Y-8711000D02*
X10991500Y-8711000D01*
X10941500Y-8915000D02*
X10941500Y-9015000D01*
X10891500Y-8965000D02*
X10991500Y-8965000D01*
X10941500Y-9169000D02*
X10941500Y-9269000D01*
X10891500Y-9219000D02*
X10991500Y-9219000D01*
X10941500Y-9423000D02*
X10941500Y-9523000D01*
X10891500Y-9473000D02*
X10991500Y-9473000D01*
X10941500Y-9677000D02*
X10941500Y-9777000D01*
X10891500Y-9727000D02*
X10991500Y-9727000D01*
X10941500Y-9931000D02*
X10941500Y-10031000D01*
X10891500Y-9981000D02*
X10991500Y-9981000D01*
X10941500Y-10185000D02*
X10941500Y-10285000D01*
X10891500Y-10235000D02*
X10991500Y-10235000D01*
X10941500Y-10439000D02*
X10941500Y-10539000D01*
X10891500Y-10489000D02*
X10991500Y-10489000D01*
X10941500Y-10693000D02*
X10941500Y-10793000D01*
X10891500Y-10743000D02*
X10991500Y-10743000D01*
X10941500Y-10947000D02*
X10941500Y-11047000D01*
X10891500Y-10997000D02*
X10991500Y-10997000D01*
X10941500Y-11201000D02*
X10941500Y-11301000D01*
X10891500Y-11251000D02*
X10991500Y-11251000D01*
X10941500Y-11455000D02*
X10941500Y-11555000D01*
X10891500Y-11505000D02*
X10991500Y-11505000D01*
D10*
X8512277Y-14221484D02*
X8512277Y-14021484D01*
X8512277Y-14021484D02*
X8559896Y-14021484D01*
X8559896Y-14021484D02*
X8588467Y-14031008D01*
X8588467Y-14031008D02*
X8607515Y-14050055D01*
X8607515Y-14050055D02*
X8617039Y-14069103D01*
X8617039Y-14069103D02*
X8626563Y-14107198D01*
X8626563Y-14107198D02*
X8626563Y-14135769D01*
X8626563Y-14135769D02*
X8617039Y-14173865D01*
X8617039Y-14173865D02*
X8607515Y-14192912D01*
X8607515Y-14192912D02*
X8588467Y-14211960D01*
X8588467Y-14211960D02*
X8559896Y-14221484D01*
X8559896Y-14221484D02*
X8512277Y-14221484D01*
X8712277Y-14221484D02*
X8712277Y-14088150D01*
X8712277Y-14126246D02*
X8721801Y-14107198D01*
X8721801Y-14107198D02*
X8731324Y-14097674D01*
X8731324Y-14097674D02*
X8750372Y-14088150D01*
X8750372Y-14088150D02*
X8769420Y-14088150D01*
X8836086Y-14221484D02*
X8836086Y-14088150D01*
X8836086Y-14021484D02*
X8826563Y-14031008D01*
X8826563Y-14031008D02*
X8836086Y-14040531D01*
X8836086Y-14040531D02*
X8845610Y-14031008D01*
X8845610Y-14031008D02*
X8836086Y-14021484D01*
X8836086Y-14021484D02*
X8836086Y-14040531D01*
X8959896Y-14221484D02*
X8940848Y-14211960D01*
X8940848Y-14211960D02*
X8931324Y-14192912D01*
X8931324Y-14192912D02*
X8931324Y-14021484D01*
X9064658Y-14221484D02*
X9045610Y-14211960D01*
X9045610Y-14211960D02*
X9036086Y-14192912D01*
X9036086Y-14192912D02*
X9036086Y-14021484D01*
X9293229Y-14221484D02*
X9293229Y-14021484D01*
X9293229Y-14021484D02*
X9359896Y-14164341D01*
X9359896Y-14164341D02*
X9426563Y-14021484D01*
X9426563Y-14021484D02*
X9426563Y-14221484D01*
X9607515Y-14221484D02*
X9607515Y-14116722D01*
X9607515Y-14116722D02*
X9597991Y-14097674D01*
X9597991Y-14097674D02*
X9578944Y-14088150D01*
X9578944Y-14088150D02*
X9540848Y-14088150D01*
X9540848Y-14088150D02*
X9521801Y-14097674D01*
X9607515Y-14211960D02*
X9588467Y-14221484D01*
X9588467Y-14221484D02*
X9540848Y-14221484D01*
X9540848Y-14221484D02*
X9521801Y-14211960D01*
X9521801Y-14211960D02*
X9512277Y-14192912D01*
X9512277Y-14192912D02*
X9512277Y-14173865D01*
X9512277Y-14173865D02*
X9521801Y-14154817D01*
X9521801Y-14154817D02*
X9540848Y-14145293D01*
X9540848Y-14145293D02*
X9588467Y-14145293D01*
X9588467Y-14145293D02*
X9607515Y-14135769D01*
X9702753Y-14088150D02*
X9702753Y-14288150D01*
X9702753Y-14097674D02*
X9721801Y-14088150D01*
X9721801Y-14088150D02*
X9759896Y-14088150D01*
X9759896Y-14088150D02*
X9778944Y-14097674D01*
X9778944Y-14097674D02*
X9788467Y-14107198D01*
X9788467Y-14107198D02*
X9797991Y-14126246D01*
X9797991Y-14126246D02*
X9797991Y-14183388D01*
X9797991Y-14183388D02*
X9788467Y-14202436D01*
X9788467Y-14202436D02*
X9778944Y-14211960D01*
X9778944Y-14211960D02*
X9759896Y-14221484D01*
X9759896Y-14221484D02*
X9721801Y-14221484D01*
X9721801Y-14221484D02*
X9702753Y-14211960D01*
X9883705Y-14202436D02*
X9893229Y-14211960D01*
X9893229Y-14211960D02*
X9883705Y-14221484D01*
X9883705Y-14221484D02*
X9874182Y-14211960D01*
X9874182Y-14211960D02*
X9883705Y-14202436D01*
X9883705Y-14202436D02*
X9883705Y-14221484D01*
X9883705Y-14097674D02*
X9893229Y-14107198D01*
X9893229Y-14107198D02*
X9883705Y-14116722D01*
X9883705Y-14116722D02*
X9874182Y-14107198D01*
X9874182Y-14107198D02*
X9883705Y-14097674D01*
X9883705Y-14097674D02*
X9883705Y-14116722D01*
D11*
X8231500Y-14540000D02*
X8251500Y-14560000D01*
X8251500Y-14540000D02*
X8231500Y-14560000D01*
D10*
X8550372Y-14441484D02*
X8569420Y-14441484D01*
X8569420Y-14441484D02*
X8588467Y-14451008D01*
X8588467Y-14451008D02*
X8597991Y-14460531D01*
X8597991Y-14460531D02*
X8607515Y-14479579D01*
X8607515Y-14479579D02*
X8617039Y-14517674D01*
X8617039Y-14517674D02*
X8617039Y-14565293D01*
X8617039Y-14565293D02*
X8607515Y-14603388D01*
X8607515Y-14603388D02*
X8597991Y-14622436D01*
X8597991Y-14622436D02*
X8588467Y-14631960D01*
X8588467Y-14631960D02*
X8569420Y-14641484D01*
X8569420Y-14641484D02*
X8550372Y-14641484D01*
X8550372Y-14641484D02*
X8531324Y-14631960D01*
X8531324Y-14631960D02*
X8521801Y-14622436D01*
X8521801Y-14622436D02*
X8512277Y-14603388D01*
X8512277Y-14603388D02*
X8502753Y-14565293D01*
X8502753Y-14565293D02*
X8502753Y-14517674D01*
X8502753Y-14517674D02*
X8512277Y-14479579D01*
X8512277Y-14479579D02*
X8521801Y-14460531D01*
X8521801Y-14460531D02*
X8531324Y-14451008D01*
X8531324Y-14451008D02*
X8550372Y-14441484D01*
X8702753Y-14622436D02*
X8712277Y-14631960D01*
X8712277Y-14631960D02*
X8702753Y-14641484D01*
X8702753Y-14641484D02*
X8693229Y-14631960D01*
X8693229Y-14631960D02*
X8702753Y-14622436D01*
X8702753Y-14622436D02*
X8702753Y-14641484D01*
X8788467Y-14460531D02*
X8797991Y-14451008D01*
X8797991Y-14451008D02*
X8817039Y-14441484D01*
X8817039Y-14441484D02*
X8864658Y-14441484D01*
X8864658Y-14441484D02*
X8883705Y-14451008D01*
X8883705Y-14451008D02*
X8893229Y-14460531D01*
X8893229Y-14460531D02*
X8902753Y-14479579D01*
X8902753Y-14479579D02*
X8902753Y-14498627D01*
X8902753Y-14498627D02*
X8893229Y-14527198D01*
X8893229Y-14527198D02*
X8778944Y-14641484D01*
X8778944Y-14641484D02*
X8902753Y-14641484D01*
X9026563Y-14441484D02*
X9045610Y-14441484D01*
X9045610Y-14441484D02*
X9064658Y-14451008D01*
X9064658Y-14451008D02*
X9074182Y-14460531D01*
X9074182Y-14460531D02*
X9083705Y-14479579D01*
X9083705Y-14479579D02*
X9093229Y-14517674D01*
X9093229Y-14517674D02*
X9093229Y-14565293D01*
X9093229Y-14565293D02*
X9083705Y-14603388D01*
X9083705Y-14603388D02*
X9074182Y-14622436D01*
X9074182Y-14622436D02*
X9064658Y-14631960D01*
X9064658Y-14631960D02*
X9045610Y-14641484D01*
X9045610Y-14641484D02*
X9026563Y-14641484D01*
X9026563Y-14641484D02*
X9007515Y-14631960D01*
X9007515Y-14631960D02*
X8997991Y-14622436D01*
X8997991Y-14622436D02*
X8988467Y-14603388D01*
X8988467Y-14603388D02*
X8978944Y-14565293D01*
X8978944Y-14565293D02*
X8978944Y-14517674D01*
X8978944Y-14517674D02*
X8988467Y-14479579D01*
X8988467Y-14479579D02*
X8997991Y-14460531D01*
X8997991Y-14460531D02*
X9007515Y-14451008D01*
X9007515Y-14451008D02*
X9026563Y-14441484D01*
X9217039Y-14441484D02*
X9236086Y-14441484D01*
X9236086Y-14441484D02*
X9255134Y-14451008D01*
X9255134Y-14451008D02*
X9264658Y-14460531D01*
X9264658Y-14460531D02*
X9274182Y-14479579D01*
X9274182Y-14479579D02*
X9283705Y-14517674D01*
X9283705Y-14517674D02*
X9283705Y-14565293D01*
X9283705Y-14565293D02*
X9274182Y-14603388D01*
X9274182Y-14603388D02*
X9264658Y-14622436D01*
X9264658Y-14622436D02*
X9255134Y-14631960D01*
X9255134Y-14631960D02*
X9236086Y-14641484D01*
X9236086Y-14641484D02*
X9217039Y-14641484D01*
X9217039Y-14641484D02*
X9197991Y-14631960D01*
X9197991Y-14631960D02*
X9188467Y-14622436D01*
X9188467Y-14622436D02*
X9178944Y-14603388D01*
X9178944Y-14603388D02*
X9169420Y-14565293D01*
X9169420Y-14565293D02*
X9169420Y-14517674D01*
X9169420Y-14517674D02*
X9178944Y-14479579D01*
X9178944Y-14479579D02*
X9188467Y-14460531D01*
X9188467Y-14460531D02*
X9197991Y-14451008D01*
X9197991Y-14451008D02*
X9217039Y-14441484D01*
X9369420Y-14641484D02*
X9369420Y-14508150D01*
X9369420Y-14527198D02*
X9378944Y-14517674D01*
X9378944Y-14517674D02*
X9397991Y-14508150D01*
X9397991Y-14508150D02*
X9426563Y-14508150D01*
X9426563Y-14508150D02*
X9445610Y-14517674D01*
X9445610Y-14517674D02*
X9455134Y-14536722D01*
X9455134Y-14536722D02*
X9455134Y-14641484D01*
X9455134Y-14536722D02*
X9464658Y-14517674D01*
X9464658Y-14517674D02*
X9483705Y-14508150D01*
X9483705Y-14508150D02*
X9512277Y-14508150D01*
X9512277Y-14508150D02*
X9531325Y-14517674D01*
X9531325Y-14517674D02*
X9540848Y-14536722D01*
X9540848Y-14536722D02*
X9540848Y-14641484D01*
X9636086Y-14641484D02*
X9636086Y-14508150D01*
X9636086Y-14527198D02*
X9645610Y-14517674D01*
X9645610Y-14517674D02*
X9664658Y-14508150D01*
X9664658Y-14508150D02*
X9693229Y-14508150D01*
X9693229Y-14508150D02*
X9712277Y-14517674D01*
X9712277Y-14517674D02*
X9721801Y-14536722D01*
X9721801Y-14536722D02*
X9721801Y-14641484D01*
X9721801Y-14536722D02*
X9731325Y-14517674D01*
X9731325Y-14517674D02*
X9750372Y-14508150D01*
X9750372Y-14508150D02*
X9778944Y-14508150D01*
X9778944Y-14508150D02*
X9797991Y-14517674D01*
X9797991Y-14517674D02*
X9807515Y-14536722D01*
X9807515Y-14536722D02*
X9807515Y-14641484D01*
X10197991Y-14431960D02*
X10026563Y-14689103D01*
X10455134Y-14441484D02*
X10474182Y-14441484D01*
X10474182Y-14441484D02*
X10493229Y-14451008D01*
X10493229Y-14451008D02*
X10502753Y-14460531D01*
X10502753Y-14460531D02*
X10512277Y-14479579D01*
X10512277Y-14479579D02*
X10521801Y-14517674D01*
X10521801Y-14517674D02*
X10521801Y-14565293D01*
X10521801Y-14565293D02*
X10512277Y-14603388D01*
X10512277Y-14603388D02*
X10502753Y-14622436D01*
X10502753Y-14622436D02*
X10493229Y-14631960D01*
X10493229Y-14631960D02*
X10474182Y-14641484D01*
X10474182Y-14641484D02*
X10455134Y-14641484D01*
X10455134Y-14641484D02*
X10436087Y-14631960D01*
X10436087Y-14631960D02*
X10426563Y-14622436D01*
X10426563Y-14622436D02*
X10417039Y-14603388D01*
X10417039Y-14603388D02*
X10407515Y-14565293D01*
X10407515Y-14565293D02*
X10407515Y-14517674D01*
X10407515Y-14517674D02*
X10417039Y-14479579D01*
X10417039Y-14479579D02*
X10426563Y-14460531D01*
X10426563Y-14460531D02*
X10436087Y-14451008D01*
X10436087Y-14451008D02*
X10455134Y-14441484D01*
X10607515Y-14622436D02*
X10617039Y-14631960D01*
X10617039Y-14631960D02*
X10607515Y-14641484D01*
X10607515Y-14641484D02*
X10597991Y-14631960D01*
X10597991Y-14631960D02*
X10607515Y-14622436D01*
X10607515Y-14622436D02*
X10607515Y-14641484D01*
X10740848Y-14441484D02*
X10759896Y-14441484D01*
X10759896Y-14441484D02*
X10778944Y-14451008D01*
X10778944Y-14451008D02*
X10788468Y-14460531D01*
X10788468Y-14460531D02*
X10797991Y-14479579D01*
X10797991Y-14479579D02*
X10807515Y-14517674D01*
X10807515Y-14517674D02*
X10807515Y-14565293D01*
X10807515Y-14565293D02*
X10797991Y-14603388D01*
X10797991Y-14603388D02*
X10788468Y-14622436D01*
X10788468Y-14622436D02*
X10778944Y-14631960D01*
X10778944Y-14631960D02*
X10759896Y-14641484D01*
X10759896Y-14641484D02*
X10740848Y-14641484D01*
X10740848Y-14641484D02*
X10721801Y-14631960D01*
X10721801Y-14631960D02*
X10712277Y-14622436D01*
X10712277Y-14622436D02*
X10702753Y-14603388D01*
X10702753Y-14603388D02*
X10693229Y-14565293D01*
X10693229Y-14565293D02*
X10693229Y-14517674D01*
X10693229Y-14517674D02*
X10702753Y-14479579D01*
X10702753Y-14479579D02*
X10712277Y-14460531D01*
X10712277Y-14460531D02*
X10721801Y-14451008D01*
X10721801Y-14451008D02*
X10740848Y-14441484D01*
X10931325Y-14441484D02*
X10950372Y-14441484D01*
X10950372Y-14441484D02*
X10969420Y-14451008D01*
X10969420Y-14451008D02*
X10978944Y-14460531D01*
X10978944Y-14460531D02*
X10988468Y-14479579D01*
X10988468Y-14479579D02*
X10997991Y-14517674D01*
X10997991Y-14517674D02*
X10997991Y-14565293D01*
X10997991Y-14565293D02*
X10988468Y-14603388D01*
X10988468Y-14603388D02*
X10978944Y-14622436D01*
X10978944Y-14622436D02*
X10969420Y-14631960D01*
X10969420Y-14631960D02*
X10950372Y-14641484D01*
X10950372Y-14641484D02*
X10931325Y-14641484D01*
X10931325Y-14641484D02*
X10912277Y-14631960D01*
X10912277Y-14631960D02*
X10902753Y-14622436D01*
X10902753Y-14622436D02*
X10893229Y-14603388D01*
X10893229Y-14603388D02*
X10883706Y-14565293D01*
X10883706Y-14565293D02*
X10883706Y-14517674D01*
X10883706Y-14517674D02*
X10893229Y-14479579D01*
X10893229Y-14479579D02*
X10902753Y-14460531D01*
X10902753Y-14460531D02*
X10912277Y-14451008D01*
X10912277Y-14451008D02*
X10931325Y-14441484D01*
X11064658Y-14441484D02*
X11197991Y-14441484D01*
X11197991Y-14441484D02*
X11112277Y-14641484D01*
X11283706Y-14641484D02*
X11321801Y-14641484D01*
X11321801Y-14641484D02*
X11340848Y-14631960D01*
X11340848Y-14631960D02*
X11350372Y-14622436D01*
X11350372Y-14622436D02*
X11369420Y-14593865D01*
X11369420Y-14593865D02*
X11378944Y-14555769D01*
X11378944Y-14555769D02*
X11378944Y-14479579D01*
X11378944Y-14479579D02*
X11369420Y-14460531D01*
X11369420Y-14460531D02*
X11359896Y-14451008D01*
X11359896Y-14451008D02*
X11340848Y-14441484D01*
X11340848Y-14441484D02*
X11302753Y-14441484D01*
X11302753Y-14441484D02*
X11283706Y-14451008D01*
X11283706Y-14451008D02*
X11274182Y-14460531D01*
X11274182Y-14460531D02*
X11264658Y-14479579D01*
X11264658Y-14479579D02*
X11264658Y-14527198D01*
X11264658Y-14527198D02*
X11274182Y-14546246D01*
X11274182Y-14546246D02*
X11283706Y-14555769D01*
X11283706Y-14555769D02*
X11302753Y-14565293D01*
X11302753Y-14565293D02*
X11340848Y-14565293D01*
X11340848Y-14565293D02*
X11359896Y-14555769D01*
X11359896Y-14555769D02*
X11369420Y-14546246D01*
X11369420Y-14546246D02*
X11378944Y-14527198D01*
X11455134Y-14441484D02*
X11455134Y-14479579D01*
X11531325Y-14441484D02*
X11531325Y-14479579D01*
X11826563Y-14717674D02*
X11817039Y-14708150D01*
X11817039Y-14708150D02*
X11797991Y-14679579D01*
X11797991Y-14679579D02*
X11788468Y-14660531D01*
X11788468Y-14660531D02*
X11778944Y-14631960D01*
X11778944Y-14631960D02*
X11769420Y-14584341D01*
X11769420Y-14584341D02*
X11769420Y-14546246D01*
X11769420Y-14546246D02*
X11778944Y-14498627D01*
X11778944Y-14498627D02*
X11788468Y-14470055D01*
X11788468Y-14470055D02*
X11797991Y-14451008D01*
X11797991Y-14451008D02*
X11817039Y-14422436D01*
X11817039Y-14422436D02*
X11826563Y-14412912D01*
X11893229Y-14460531D02*
X11902753Y-14451008D01*
X11902753Y-14451008D02*
X11921801Y-14441484D01*
X11921801Y-14441484D02*
X11969420Y-14441484D01*
X11969420Y-14441484D02*
X11988468Y-14451008D01*
X11988468Y-14451008D02*
X11997991Y-14460531D01*
X11997991Y-14460531D02*
X12007515Y-14479579D01*
X12007515Y-14479579D02*
X12007515Y-14498627D01*
X12007515Y-14498627D02*
X11997991Y-14527198D01*
X11997991Y-14527198D02*
X11883706Y-14641484D01*
X11883706Y-14641484D02*
X12007515Y-14641484D01*
X12197991Y-14641484D02*
X12083706Y-14641484D01*
X12140848Y-14641484D02*
X12140848Y-14441484D01*
X12140848Y-14441484D02*
X12121801Y-14470055D01*
X12121801Y-14470055D02*
X12102753Y-14489103D01*
X12102753Y-14489103D02*
X12083706Y-14498627D01*
X12436087Y-14641484D02*
X12436087Y-14441484D01*
X12521801Y-14641484D02*
X12521801Y-14536722D01*
X12521801Y-14536722D02*
X12512277Y-14517674D01*
X12512277Y-14517674D02*
X12493230Y-14508150D01*
X12493230Y-14508150D02*
X12464658Y-14508150D01*
X12464658Y-14508150D02*
X12445610Y-14517674D01*
X12445610Y-14517674D02*
X12436087Y-14527198D01*
X12645610Y-14641484D02*
X12626563Y-14631960D01*
X12626563Y-14631960D02*
X12617039Y-14622436D01*
X12617039Y-14622436D02*
X12607515Y-14603388D01*
X12607515Y-14603388D02*
X12607515Y-14546246D01*
X12607515Y-14546246D02*
X12617039Y-14527198D01*
X12617039Y-14527198D02*
X12626563Y-14517674D01*
X12626563Y-14517674D02*
X12645610Y-14508150D01*
X12645610Y-14508150D02*
X12674182Y-14508150D01*
X12674182Y-14508150D02*
X12693230Y-14517674D01*
X12693230Y-14517674D02*
X12702753Y-14527198D01*
X12702753Y-14527198D02*
X12712277Y-14546246D01*
X12712277Y-14546246D02*
X12712277Y-14603388D01*
X12712277Y-14603388D02*
X12702753Y-14622436D01*
X12702753Y-14622436D02*
X12693230Y-14631960D01*
X12693230Y-14631960D02*
X12674182Y-14641484D01*
X12674182Y-14641484D02*
X12645610Y-14641484D01*
X12826563Y-14641484D02*
X12807515Y-14631960D01*
X12807515Y-14631960D02*
X12797991Y-14612912D01*
X12797991Y-14612912D02*
X12797991Y-14441484D01*
X12978944Y-14631960D02*
X12959896Y-14641484D01*
X12959896Y-14641484D02*
X12921801Y-14641484D01*
X12921801Y-14641484D02*
X12902753Y-14631960D01*
X12902753Y-14631960D02*
X12893230Y-14612912D01*
X12893230Y-14612912D02*
X12893230Y-14536722D01*
X12893230Y-14536722D02*
X12902753Y-14517674D01*
X12902753Y-14517674D02*
X12921801Y-14508150D01*
X12921801Y-14508150D02*
X12959896Y-14508150D01*
X12959896Y-14508150D02*
X12978944Y-14517674D01*
X12978944Y-14517674D02*
X12988468Y-14536722D01*
X12988468Y-14536722D02*
X12988468Y-14555769D01*
X12988468Y-14555769D02*
X12893230Y-14574817D01*
X13064658Y-14631960D02*
X13083706Y-14641484D01*
X13083706Y-14641484D02*
X13121801Y-14641484D01*
X13121801Y-14641484D02*
X13140849Y-14631960D01*
X13140849Y-14631960D02*
X13150372Y-14612912D01*
X13150372Y-14612912D02*
X13150372Y-14603388D01*
X13150372Y-14603388D02*
X13140849Y-14584341D01*
X13140849Y-14584341D02*
X13121801Y-14574817D01*
X13121801Y-14574817D02*
X13093230Y-14574817D01*
X13093230Y-14574817D02*
X13074182Y-14565293D01*
X13074182Y-14565293D02*
X13064658Y-14546246D01*
X13064658Y-14546246D02*
X13064658Y-14536722D01*
X13064658Y-14536722D02*
X13074182Y-14517674D01*
X13074182Y-14517674D02*
X13093230Y-14508150D01*
X13093230Y-14508150D02*
X13121801Y-14508150D01*
X13121801Y-14508150D02*
X13140849Y-14517674D01*
X13217039Y-14717674D02*
X13226563Y-14708150D01*
X13226563Y-14708150D02*
X13245611Y-14679579D01*
X13245611Y-14679579D02*
X13255134Y-14660531D01*
X13255134Y-14660531D02*
X13264658Y-14631960D01*
X13264658Y-14631960D02*
X13274182Y-14584341D01*
X13274182Y-14584341D02*
X13274182Y-14546246D01*
X13274182Y-14546246D02*
X13264658Y-14498627D01*
X13264658Y-14498627D02*
X13255134Y-14470055D01*
X13255134Y-14470055D02*
X13245611Y-14451008D01*
X13245611Y-14451008D02*
X13226563Y-14422436D01*
X13226563Y-14422436D02*
X13217039Y-14412912D01*
D11*
X8251500Y-14814000D02*
G75*
G02*
X8181500Y-14814000I-35000J0D01*
G01*
X8181500Y-14814000D02*
G75*
G02*
X8251500Y-14814000I35000J0D01*
G01*
D10*
X8550372Y-14705484D02*
X8569420Y-14705484D01*
X8569420Y-14705484D02*
X8588467Y-14715008D01*
X8588467Y-14715008D02*
X8597991Y-14724531D01*
X8597991Y-14724531D02*
X8607515Y-14743579D01*
X8607515Y-14743579D02*
X8617039Y-14781674D01*
X8617039Y-14781674D02*
X8617039Y-14829293D01*
X8617039Y-14829293D02*
X8607515Y-14867388D01*
X8607515Y-14867388D02*
X8597991Y-14886436D01*
X8597991Y-14886436D02*
X8588467Y-14895960D01*
X8588467Y-14895960D02*
X8569420Y-14905484D01*
X8569420Y-14905484D02*
X8550372Y-14905484D01*
X8550372Y-14905484D02*
X8531324Y-14895960D01*
X8531324Y-14895960D02*
X8521801Y-14886436D01*
X8521801Y-14886436D02*
X8512277Y-14867388D01*
X8512277Y-14867388D02*
X8502753Y-14829293D01*
X8502753Y-14829293D02*
X8502753Y-14781674D01*
X8502753Y-14781674D02*
X8512277Y-14743579D01*
X8512277Y-14743579D02*
X8521801Y-14724531D01*
X8521801Y-14724531D02*
X8531324Y-14715008D01*
X8531324Y-14715008D02*
X8550372Y-14705484D01*
X8702753Y-14886436D02*
X8712277Y-14895960D01*
X8712277Y-14895960D02*
X8702753Y-14905484D01*
X8702753Y-14905484D02*
X8693229Y-14895960D01*
X8693229Y-14895960D02*
X8702753Y-14886436D01*
X8702753Y-14886436D02*
X8702753Y-14905484D01*
X8778944Y-14705484D02*
X8912277Y-14705484D01*
X8912277Y-14705484D02*
X8826563Y-14905484D01*
X9026563Y-14705484D02*
X9045610Y-14705484D01*
X9045610Y-14705484D02*
X9064658Y-14715008D01*
X9064658Y-14715008D02*
X9074182Y-14724531D01*
X9074182Y-14724531D02*
X9083705Y-14743579D01*
X9083705Y-14743579D02*
X9093229Y-14781674D01*
X9093229Y-14781674D02*
X9093229Y-14829293D01*
X9093229Y-14829293D02*
X9083705Y-14867388D01*
X9083705Y-14867388D02*
X9074182Y-14886436D01*
X9074182Y-14886436D02*
X9064658Y-14895960D01*
X9064658Y-14895960D02*
X9045610Y-14905484D01*
X9045610Y-14905484D02*
X9026563Y-14905484D01*
X9026563Y-14905484D02*
X9007515Y-14895960D01*
X9007515Y-14895960D02*
X8997991Y-14886436D01*
X8997991Y-14886436D02*
X8988467Y-14867388D01*
X8988467Y-14867388D02*
X8978944Y-14829293D01*
X8978944Y-14829293D02*
X8978944Y-14781674D01*
X8978944Y-14781674D02*
X8988467Y-14743579D01*
X8988467Y-14743579D02*
X8997991Y-14724531D01*
X8997991Y-14724531D02*
X9007515Y-14715008D01*
X9007515Y-14715008D02*
X9026563Y-14705484D01*
X9217039Y-14705484D02*
X9236086Y-14705484D01*
X9236086Y-14705484D02*
X9255134Y-14715008D01*
X9255134Y-14715008D02*
X9264658Y-14724531D01*
X9264658Y-14724531D02*
X9274182Y-14743579D01*
X9274182Y-14743579D02*
X9283705Y-14781674D01*
X9283705Y-14781674D02*
X9283705Y-14829293D01*
X9283705Y-14829293D02*
X9274182Y-14867388D01*
X9274182Y-14867388D02*
X9264658Y-14886436D01*
X9264658Y-14886436D02*
X9255134Y-14895960D01*
X9255134Y-14895960D02*
X9236086Y-14905484D01*
X9236086Y-14905484D02*
X9217039Y-14905484D01*
X9217039Y-14905484D02*
X9197991Y-14895960D01*
X9197991Y-14895960D02*
X9188467Y-14886436D01*
X9188467Y-14886436D02*
X9178944Y-14867388D01*
X9178944Y-14867388D02*
X9169420Y-14829293D01*
X9169420Y-14829293D02*
X9169420Y-14781674D01*
X9169420Y-14781674D02*
X9178944Y-14743579D01*
X9178944Y-14743579D02*
X9188467Y-14724531D01*
X9188467Y-14724531D02*
X9197991Y-14715008D01*
X9197991Y-14715008D02*
X9217039Y-14705484D01*
X9369420Y-14905484D02*
X9369420Y-14772150D01*
X9369420Y-14791198D02*
X9378944Y-14781674D01*
X9378944Y-14781674D02*
X9397991Y-14772150D01*
X9397991Y-14772150D02*
X9426563Y-14772150D01*
X9426563Y-14772150D02*
X9445610Y-14781674D01*
X9445610Y-14781674D02*
X9455134Y-14800722D01*
X9455134Y-14800722D02*
X9455134Y-14905484D01*
X9455134Y-14800722D02*
X9464658Y-14781674D01*
X9464658Y-14781674D02*
X9483705Y-14772150D01*
X9483705Y-14772150D02*
X9512277Y-14772150D01*
X9512277Y-14772150D02*
X9531325Y-14781674D01*
X9531325Y-14781674D02*
X9540848Y-14800722D01*
X9540848Y-14800722D02*
X9540848Y-14905484D01*
X9636086Y-14905484D02*
X9636086Y-14772150D01*
X9636086Y-14791198D02*
X9645610Y-14781674D01*
X9645610Y-14781674D02*
X9664658Y-14772150D01*
X9664658Y-14772150D02*
X9693229Y-14772150D01*
X9693229Y-14772150D02*
X9712277Y-14781674D01*
X9712277Y-14781674D02*
X9721801Y-14800722D01*
X9721801Y-14800722D02*
X9721801Y-14905484D01*
X9721801Y-14800722D02*
X9731325Y-14781674D01*
X9731325Y-14781674D02*
X9750372Y-14772150D01*
X9750372Y-14772150D02*
X9778944Y-14772150D01*
X9778944Y-14772150D02*
X9797991Y-14781674D01*
X9797991Y-14781674D02*
X9807515Y-14800722D01*
X9807515Y-14800722D02*
X9807515Y-14905484D01*
X10197991Y-14695960D02*
X10026563Y-14953103D01*
X10455134Y-14705484D02*
X10474182Y-14705484D01*
X10474182Y-14705484D02*
X10493229Y-14715008D01*
X10493229Y-14715008D02*
X10502753Y-14724531D01*
X10502753Y-14724531D02*
X10512277Y-14743579D01*
X10512277Y-14743579D02*
X10521801Y-14781674D01*
X10521801Y-14781674D02*
X10521801Y-14829293D01*
X10521801Y-14829293D02*
X10512277Y-14867388D01*
X10512277Y-14867388D02*
X10502753Y-14886436D01*
X10502753Y-14886436D02*
X10493229Y-14895960D01*
X10493229Y-14895960D02*
X10474182Y-14905484D01*
X10474182Y-14905484D02*
X10455134Y-14905484D01*
X10455134Y-14905484D02*
X10436087Y-14895960D01*
X10436087Y-14895960D02*
X10426563Y-14886436D01*
X10426563Y-14886436D02*
X10417039Y-14867388D01*
X10417039Y-14867388D02*
X10407515Y-14829293D01*
X10407515Y-14829293D02*
X10407515Y-14781674D01*
X10407515Y-14781674D02*
X10417039Y-14743579D01*
X10417039Y-14743579D02*
X10426563Y-14724531D01*
X10426563Y-14724531D02*
X10436087Y-14715008D01*
X10436087Y-14715008D02*
X10455134Y-14705484D01*
X10607515Y-14886436D02*
X10617039Y-14895960D01*
X10617039Y-14895960D02*
X10607515Y-14905484D01*
X10607515Y-14905484D02*
X10597991Y-14895960D01*
X10597991Y-14895960D02*
X10607515Y-14886436D01*
X10607515Y-14886436D02*
X10607515Y-14905484D01*
X10740848Y-14705484D02*
X10759896Y-14705484D01*
X10759896Y-14705484D02*
X10778944Y-14715008D01*
X10778944Y-14715008D02*
X10788468Y-14724531D01*
X10788468Y-14724531D02*
X10797991Y-14743579D01*
X10797991Y-14743579D02*
X10807515Y-14781674D01*
X10807515Y-14781674D02*
X10807515Y-14829293D01*
X10807515Y-14829293D02*
X10797991Y-14867388D01*
X10797991Y-14867388D02*
X10788468Y-14886436D01*
X10788468Y-14886436D02*
X10778944Y-14895960D01*
X10778944Y-14895960D02*
X10759896Y-14905484D01*
X10759896Y-14905484D02*
X10740848Y-14905484D01*
X10740848Y-14905484D02*
X10721801Y-14895960D01*
X10721801Y-14895960D02*
X10712277Y-14886436D01*
X10712277Y-14886436D02*
X10702753Y-14867388D01*
X10702753Y-14867388D02*
X10693229Y-14829293D01*
X10693229Y-14829293D02*
X10693229Y-14781674D01*
X10693229Y-14781674D02*
X10702753Y-14743579D01*
X10702753Y-14743579D02*
X10712277Y-14724531D01*
X10712277Y-14724531D02*
X10721801Y-14715008D01*
X10721801Y-14715008D02*
X10740848Y-14705484D01*
X10883706Y-14724531D02*
X10893229Y-14715008D01*
X10893229Y-14715008D02*
X10912277Y-14705484D01*
X10912277Y-14705484D02*
X10959896Y-14705484D01*
X10959896Y-14705484D02*
X10978944Y-14715008D01*
X10978944Y-14715008D02*
X10988468Y-14724531D01*
X10988468Y-14724531D02*
X10997991Y-14743579D01*
X10997991Y-14743579D02*
X10997991Y-14762627D01*
X10997991Y-14762627D02*
X10988468Y-14791198D01*
X10988468Y-14791198D02*
X10874182Y-14905484D01*
X10874182Y-14905484D02*
X10997991Y-14905484D01*
X11064658Y-14705484D02*
X11197991Y-14705484D01*
X11197991Y-14705484D02*
X11112277Y-14905484D01*
X11359896Y-14705484D02*
X11321801Y-14705484D01*
X11321801Y-14705484D02*
X11302753Y-14715008D01*
X11302753Y-14715008D02*
X11293229Y-14724531D01*
X11293229Y-14724531D02*
X11274182Y-14753103D01*
X11274182Y-14753103D02*
X11264658Y-14791198D01*
X11264658Y-14791198D02*
X11264658Y-14867388D01*
X11264658Y-14867388D02*
X11274182Y-14886436D01*
X11274182Y-14886436D02*
X11283706Y-14895960D01*
X11283706Y-14895960D02*
X11302753Y-14905484D01*
X11302753Y-14905484D02*
X11340848Y-14905484D01*
X11340848Y-14905484D02*
X11359896Y-14895960D01*
X11359896Y-14895960D02*
X11369420Y-14886436D01*
X11369420Y-14886436D02*
X11378944Y-14867388D01*
X11378944Y-14867388D02*
X11378944Y-14819769D01*
X11378944Y-14819769D02*
X11369420Y-14800722D01*
X11369420Y-14800722D02*
X11359896Y-14791198D01*
X11359896Y-14791198D02*
X11340848Y-14781674D01*
X11340848Y-14781674D02*
X11302753Y-14781674D01*
X11302753Y-14781674D02*
X11283706Y-14791198D01*
X11283706Y-14791198D02*
X11274182Y-14800722D01*
X11274182Y-14800722D02*
X11264658Y-14819769D01*
X11455134Y-14705484D02*
X11455134Y-14743579D01*
X11531325Y-14705484D02*
X11531325Y-14743579D01*
X11826563Y-14981674D02*
X11817039Y-14972150D01*
X11817039Y-14972150D02*
X11797991Y-14943579D01*
X11797991Y-14943579D02*
X11788468Y-14924531D01*
X11788468Y-14924531D02*
X11778944Y-14895960D01*
X11778944Y-14895960D02*
X11769420Y-14848341D01*
X11769420Y-14848341D02*
X11769420Y-14810246D01*
X11769420Y-14810246D02*
X11778944Y-14762627D01*
X11778944Y-14762627D02*
X11788468Y-14734055D01*
X11788468Y-14734055D02*
X11797991Y-14715008D01*
X11797991Y-14715008D02*
X11817039Y-14686436D01*
X11817039Y-14686436D02*
X11826563Y-14676912D01*
X11988468Y-14772150D02*
X11988468Y-14905484D01*
X11940848Y-14695960D02*
X11893229Y-14838817D01*
X11893229Y-14838817D02*
X12017039Y-14838817D01*
X12245610Y-14905484D02*
X12245610Y-14705484D01*
X12331325Y-14905484D02*
X12331325Y-14800722D01*
X12331325Y-14800722D02*
X12321801Y-14781674D01*
X12321801Y-14781674D02*
X12302753Y-14772150D01*
X12302753Y-14772150D02*
X12274182Y-14772150D01*
X12274182Y-14772150D02*
X12255134Y-14781674D01*
X12255134Y-14781674D02*
X12245610Y-14791198D01*
X12455134Y-14905484D02*
X12436087Y-14895960D01*
X12436087Y-14895960D02*
X12426563Y-14886436D01*
X12426563Y-14886436D02*
X12417039Y-14867388D01*
X12417039Y-14867388D02*
X12417039Y-14810246D01*
X12417039Y-14810246D02*
X12426563Y-14791198D01*
X12426563Y-14791198D02*
X12436087Y-14781674D01*
X12436087Y-14781674D02*
X12455134Y-14772150D01*
X12455134Y-14772150D02*
X12483706Y-14772150D01*
X12483706Y-14772150D02*
X12502753Y-14781674D01*
X12502753Y-14781674D02*
X12512277Y-14791198D01*
X12512277Y-14791198D02*
X12521801Y-14810246D01*
X12521801Y-14810246D02*
X12521801Y-14867388D01*
X12521801Y-14867388D02*
X12512277Y-14886436D01*
X12512277Y-14886436D02*
X12502753Y-14895960D01*
X12502753Y-14895960D02*
X12483706Y-14905484D01*
X12483706Y-14905484D02*
X12455134Y-14905484D01*
X12636087Y-14905484D02*
X12617039Y-14895960D01*
X12617039Y-14895960D02*
X12607515Y-14876912D01*
X12607515Y-14876912D02*
X12607515Y-14705484D01*
X12788468Y-14895960D02*
X12769420Y-14905484D01*
X12769420Y-14905484D02*
X12731325Y-14905484D01*
X12731325Y-14905484D02*
X12712277Y-14895960D01*
X12712277Y-14895960D02*
X12702753Y-14876912D01*
X12702753Y-14876912D02*
X12702753Y-14800722D01*
X12702753Y-14800722D02*
X12712277Y-14781674D01*
X12712277Y-14781674D02*
X12731325Y-14772150D01*
X12731325Y-14772150D02*
X12769420Y-14772150D01*
X12769420Y-14772150D02*
X12788468Y-14781674D01*
X12788468Y-14781674D02*
X12797991Y-14800722D01*
X12797991Y-14800722D02*
X12797991Y-14819769D01*
X12797991Y-14819769D02*
X12702753Y-14838817D01*
X12874182Y-14895960D02*
X12893230Y-14905484D01*
X12893230Y-14905484D02*
X12931325Y-14905484D01*
X12931325Y-14905484D02*
X12950372Y-14895960D01*
X12950372Y-14895960D02*
X12959896Y-14876912D01*
X12959896Y-14876912D02*
X12959896Y-14867388D01*
X12959896Y-14867388D02*
X12950372Y-14848341D01*
X12950372Y-14848341D02*
X12931325Y-14838817D01*
X12931325Y-14838817D02*
X12902753Y-14838817D01*
X12902753Y-14838817D02*
X12883706Y-14829293D01*
X12883706Y-14829293D02*
X12874182Y-14810246D01*
X12874182Y-14810246D02*
X12874182Y-14800722D01*
X12874182Y-14800722D02*
X12883706Y-14781674D01*
X12883706Y-14781674D02*
X12902753Y-14772150D01*
X12902753Y-14772150D02*
X12931325Y-14772150D01*
X12931325Y-14772150D02*
X12950372Y-14781674D01*
X13026563Y-14981674D02*
X13036087Y-14972150D01*
X13036087Y-14972150D02*
X13055134Y-14943579D01*
X13055134Y-14943579D02*
X13064658Y-14924531D01*
X13064658Y-14924531D02*
X13074182Y-14895960D01*
X13074182Y-14895960D02*
X13083706Y-14848341D01*
X13083706Y-14848341D02*
X13083706Y-14810246D01*
X13083706Y-14810246D02*
X13074182Y-14762627D01*
X13074182Y-14762627D02*
X13064658Y-14734055D01*
X13064658Y-14734055D02*
X13055134Y-14715008D01*
X13055134Y-14715008D02*
X13036087Y-14686436D01*
X13036087Y-14686436D02*
X13026563Y-14676912D01*
D11*
X8201500Y-15028000D02*
X8201500Y-15128000D01*
X8151500Y-15078000D02*
X8251500Y-15078000D01*
D10*
X8617039Y-15169484D02*
X8502753Y-15169484D01*
X8559896Y-15169484D02*
X8559896Y-14969484D01*
X8559896Y-14969484D02*
X8540848Y-14998055D01*
X8540848Y-14998055D02*
X8521801Y-15017103D01*
X8521801Y-15017103D02*
X8502753Y-15026627D01*
X8702753Y-15150436D02*
X8712277Y-15159960D01*
X8712277Y-15159960D02*
X8702753Y-15169484D01*
X8702753Y-15169484D02*
X8693229Y-15159960D01*
X8693229Y-15159960D02*
X8702753Y-15150436D01*
X8702753Y-15150436D02*
X8702753Y-15169484D01*
X8836086Y-14969484D02*
X8855134Y-14969484D01*
X8855134Y-14969484D02*
X8874182Y-14979008D01*
X8874182Y-14979008D02*
X8883705Y-14988531D01*
X8883705Y-14988531D02*
X8893229Y-15007579D01*
X8893229Y-15007579D02*
X8902753Y-15045674D01*
X8902753Y-15045674D02*
X8902753Y-15093293D01*
X8902753Y-15093293D02*
X8893229Y-15131388D01*
X8893229Y-15131388D02*
X8883705Y-15150436D01*
X8883705Y-15150436D02*
X8874182Y-15159960D01*
X8874182Y-15159960D02*
X8855134Y-15169484D01*
X8855134Y-15169484D02*
X8836086Y-15169484D01*
X8836086Y-15169484D02*
X8817039Y-15159960D01*
X8817039Y-15159960D02*
X8807515Y-15150436D01*
X8807515Y-15150436D02*
X8797991Y-15131388D01*
X8797991Y-15131388D02*
X8788467Y-15093293D01*
X8788467Y-15093293D02*
X8788467Y-15045674D01*
X8788467Y-15045674D02*
X8797991Y-15007579D01*
X8797991Y-15007579D02*
X8807515Y-14988531D01*
X8807515Y-14988531D02*
X8817039Y-14979008D01*
X8817039Y-14979008D02*
X8836086Y-14969484D01*
X9026563Y-14969484D02*
X9045610Y-14969484D01*
X9045610Y-14969484D02*
X9064658Y-14979008D01*
X9064658Y-14979008D02*
X9074182Y-14988531D01*
X9074182Y-14988531D02*
X9083705Y-15007579D01*
X9083705Y-15007579D02*
X9093229Y-15045674D01*
X9093229Y-15045674D02*
X9093229Y-15093293D01*
X9093229Y-15093293D02*
X9083705Y-15131388D01*
X9083705Y-15131388D02*
X9074182Y-15150436D01*
X9074182Y-15150436D02*
X9064658Y-15159960D01*
X9064658Y-15159960D02*
X9045610Y-15169484D01*
X9045610Y-15169484D02*
X9026563Y-15169484D01*
X9026563Y-15169484D02*
X9007515Y-15159960D01*
X9007515Y-15159960D02*
X8997991Y-15150436D01*
X8997991Y-15150436D02*
X8988467Y-15131388D01*
X8988467Y-15131388D02*
X8978944Y-15093293D01*
X8978944Y-15093293D02*
X8978944Y-15045674D01*
X8978944Y-15045674D02*
X8988467Y-15007579D01*
X8988467Y-15007579D02*
X8997991Y-14988531D01*
X8997991Y-14988531D02*
X9007515Y-14979008D01*
X9007515Y-14979008D02*
X9026563Y-14969484D01*
X9217039Y-14969484D02*
X9236086Y-14969484D01*
X9236086Y-14969484D02*
X9255134Y-14979008D01*
X9255134Y-14979008D02*
X9264658Y-14988531D01*
X9264658Y-14988531D02*
X9274182Y-15007579D01*
X9274182Y-15007579D02*
X9283705Y-15045674D01*
X9283705Y-15045674D02*
X9283705Y-15093293D01*
X9283705Y-15093293D02*
X9274182Y-15131388D01*
X9274182Y-15131388D02*
X9264658Y-15150436D01*
X9264658Y-15150436D02*
X9255134Y-15159960D01*
X9255134Y-15159960D02*
X9236086Y-15169484D01*
X9236086Y-15169484D02*
X9217039Y-15169484D01*
X9217039Y-15169484D02*
X9197991Y-15159960D01*
X9197991Y-15159960D02*
X9188467Y-15150436D01*
X9188467Y-15150436D02*
X9178944Y-15131388D01*
X9178944Y-15131388D02*
X9169420Y-15093293D01*
X9169420Y-15093293D02*
X9169420Y-15045674D01*
X9169420Y-15045674D02*
X9178944Y-15007579D01*
X9178944Y-15007579D02*
X9188467Y-14988531D01*
X9188467Y-14988531D02*
X9197991Y-14979008D01*
X9197991Y-14979008D02*
X9217039Y-14969484D01*
X9369420Y-15169484D02*
X9369420Y-15036150D01*
X9369420Y-15055198D02*
X9378944Y-15045674D01*
X9378944Y-15045674D02*
X9397991Y-15036150D01*
X9397991Y-15036150D02*
X9426563Y-15036150D01*
X9426563Y-15036150D02*
X9445610Y-15045674D01*
X9445610Y-15045674D02*
X9455134Y-15064722D01*
X9455134Y-15064722D02*
X9455134Y-15169484D01*
X9455134Y-15064722D02*
X9464658Y-15045674D01*
X9464658Y-15045674D02*
X9483705Y-15036150D01*
X9483705Y-15036150D02*
X9512277Y-15036150D01*
X9512277Y-15036150D02*
X9531325Y-15045674D01*
X9531325Y-15045674D02*
X9540848Y-15064722D01*
X9540848Y-15064722D02*
X9540848Y-15169484D01*
X9636086Y-15169484D02*
X9636086Y-15036150D01*
X9636086Y-15055198D02*
X9645610Y-15045674D01*
X9645610Y-15045674D02*
X9664658Y-15036150D01*
X9664658Y-15036150D02*
X9693229Y-15036150D01*
X9693229Y-15036150D02*
X9712277Y-15045674D01*
X9712277Y-15045674D02*
X9721801Y-15064722D01*
X9721801Y-15064722D02*
X9721801Y-15169484D01*
X9721801Y-15064722D02*
X9731325Y-15045674D01*
X9731325Y-15045674D02*
X9750372Y-15036150D01*
X9750372Y-15036150D02*
X9778944Y-15036150D01*
X9778944Y-15036150D02*
X9797991Y-15045674D01*
X9797991Y-15045674D02*
X9807515Y-15064722D01*
X9807515Y-15064722D02*
X9807515Y-15169484D01*
X10197991Y-14959960D02*
X10026563Y-15217103D01*
X10455134Y-14969484D02*
X10474182Y-14969484D01*
X10474182Y-14969484D02*
X10493229Y-14979008D01*
X10493229Y-14979008D02*
X10502753Y-14988531D01*
X10502753Y-14988531D02*
X10512277Y-15007579D01*
X10512277Y-15007579D02*
X10521801Y-15045674D01*
X10521801Y-15045674D02*
X10521801Y-15093293D01*
X10521801Y-15093293D02*
X10512277Y-15131388D01*
X10512277Y-15131388D02*
X10502753Y-15150436D01*
X10502753Y-15150436D02*
X10493229Y-15159960D01*
X10493229Y-15159960D02*
X10474182Y-15169484D01*
X10474182Y-15169484D02*
X10455134Y-15169484D01*
X10455134Y-15169484D02*
X10436087Y-15159960D01*
X10436087Y-15159960D02*
X10426563Y-15150436D01*
X10426563Y-15150436D02*
X10417039Y-15131388D01*
X10417039Y-15131388D02*
X10407515Y-15093293D01*
X10407515Y-15093293D02*
X10407515Y-15045674D01*
X10407515Y-15045674D02*
X10417039Y-15007579D01*
X10417039Y-15007579D02*
X10426563Y-14988531D01*
X10426563Y-14988531D02*
X10436087Y-14979008D01*
X10436087Y-14979008D02*
X10455134Y-14969484D01*
X10607515Y-15150436D02*
X10617039Y-15159960D01*
X10617039Y-15159960D02*
X10607515Y-15169484D01*
X10607515Y-15169484D02*
X10597991Y-15159960D01*
X10597991Y-15159960D02*
X10607515Y-15150436D01*
X10607515Y-15150436D02*
X10607515Y-15169484D01*
X10740848Y-14969484D02*
X10759896Y-14969484D01*
X10759896Y-14969484D02*
X10778944Y-14979008D01*
X10778944Y-14979008D02*
X10788468Y-14988531D01*
X10788468Y-14988531D02*
X10797991Y-15007579D01*
X10797991Y-15007579D02*
X10807515Y-15045674D01*
X10807515Y-15045674D02*
X10807515Y-15093293D01*
X10807515Y-15093293D02*
X10797991Y-15131388D01*
X10797991Y-15131388D02*
X10788468Y-15150436D01*
X10788468Y-15150436D02*
X10778944Y-15159960D01*
X10778944Y-15159960D02*
X10759896Y-15169484D01*
X10759896Y-15169484D02*
X10740848Y-15169484D01*
X10740848Y-15169484D02*
X10721801Y-15159960D01*
X10721801Y-15159960D02*
X10712277Y-15150436D01*
X10712277Y-15150436D02*
X10702753Y-15131388D01*
X10702753Y-15131388D02*
X10693229Y-15093293D01*
X10693229Y-15093293D02*
X10693229Y-15045674D01*
X10693229Y-15045674D02*
X10702753Y-15007579D01*
X10702753Y-15007579D02*
X10712277Y-14988531D01*
X10712277Y-14988531D02*
X10721801Y-14979008D01*
X10721801Y-14979008D02*
X10740848Y-14969484D01*
X10874182Y-14969484D02*
X10997991Y-14969484D01*
X10997991Y-14969484D02*
X10931325Y-15045674D01*
X10931325Y-15045674D02*
X10959896Y-15045674D01*
X10959896Y-15045674D02*
X10978944Y-15055198D01*
X10978944Y-15055198D02*
X10988468Y-15064722D01*
X10988468Y-15064722D02*
X10997991Y-15083769D01*
X10997991Y-15083769D02*
X10997991Y-15131388D01*
X10997991Y-15131388D02*
X10988468Y-15150436D01*
X10988468Y-15150436D02*
X10978944Y-15159960D01*
X10978944Y-15159960D02*
X10959896Y-15169484D01*
X10959896Y-15169484D02*
X10902753Y-15169484D01*
X10902753Y-15169484D02*
X10883706Y-15159960D01*
X10883706Y-15159960D02*
X10874182Y-15150436D01*
X11093229Y-15169484D02*
X11131325Y-15169484D01*
X11131325Y-15169484D02*
X11150372Y-15159960D01*
X11150372Y-15159960D02*
X11159896Y-15150436D01*
X11159896Y-15150436D02*
X11178944Y-15121865D01*
X11178944Y-15121865D02*
X11188467Y-15083769D01*
X11188467Y-15083769D02*
X11188467Y-15007579D01*
X11188467Y-15007579D02*
X11178944Y-14988531D01*
X11178944Y-14988531D02*
X11169420Y-14979008D01*
X11169420Y-14979008D02*
X11150372Y-14969484D01*
X11150372Y-14969484D02*
X11112277Y-14969484D01*
X11112277Y-14969484D02*
X11093229Y-14979008D01*
X11093229Y-14979008D02*
X11083706Y-14988531D01*
X11083706Y-14988531D02*
X11074182Y-15007579D01*
X11074182Y-15007579D02*
X11074182Y-15055198D01*
X11074182Y-15055198D02*
X11083706Y-15074246D01*
X11083706Y-15074246D02*
X11093229Y-15083769D01*
X11093229Y-15083769D02*
X11112277Y-15093293D01*
X11112277Y-15093293D02*
X11150372Y-15093293D01*
X11150372Y-15093293D02*
X11169420Y-15083769D01*
X11169420Y-15083769D02*
X11178944Y-15074246D01*
X11178944Y-15074246D02*
X11188467Y-15055198D01*
X11359896Y-15036150D02*
X11359896Y-15169484D01*
X11312277Y-14959960D02*
X11264658Y-15102817D01*
X11264658Y-15102817D02*
X11388467Y-15102817D01*
X11455134Y-14969484D02*
X11455134Y-15007579D01*
X11531325Y-14969484D02*
X11531325Y-15007579D01*
X11826563Y-15245674D02*
X11817039Y-15236150D01*
X11817039Y-15236150D02*
X11797991Y-15207579D01*
X11797991Y-15207579D02*
X11788468Y-15188531D01*
X11788468Y-15188531D02*
X11778944Y-15159960D01*
X11778944Y-15159960D02*
X11769420Y-15112341D01*
X11769420Y-15112341D02*
X11769420Y-15074246D01*
X11769420Y-15074246D02*
X11778944Y-15026627D01*
X11778944Y-15026627D02*
X11788468Y-14998055D01*
X11788468Y-14998055D02*
X11797991Y-14979008D01*
X11797991Y-14979008D02*
X11817039Y-14950436D01*
X11817039Y-14950436D02*
X11826563Y-14940912D01*
X11883706Y-14969484D02*
X12007515Y-14969484D01*
X12007515Y-14969484D02*
X11940848Y-15045674D01*
X11940848Y-15045674D02*
X11969420Y-15045674D01*
X11969420Y-15045674D02*
X11988468Y-15055198D01*
X11988468Y-15055198D02*
X11997991Y-15064722D01*
X11997991Y-15064722D02*
X12007515Y-15083769D01*
X12007515Y-15083769D02*
X12007515Y-15131388D01*
X12007515Y-15131388D02*
X11997991Y-15150436D01*
X11997991Y-15150436D02*
X11988468Y-15159960D01*
X11988468Y-15159960D02*
X11969420Y-15169484D01*
X11969420Y-15169484D02*
X11912277Y-15169484D01*
X11912277Y-15169484D02*
X11893229Y-15159960D01*
X11893229Y-15159960D02*
X11883706Y-15150436D01*
X12083706Y-14988531D02*
X12093229Y-14979008D01*
X12093229Y-14979008D02*
X12112277Y-14969484D01*
X12112277Y-14969484D02*
X12159896Y-14969484D01*
X12159896Y-14969484D02*
X12178944Y-14979008D01*
X12178944Y-14979008D02*
X12188468Y-14988531D01*
X12188468Y-14988531D02*
X12197991Y-15007579D01*
X12197991Y-15007579D02*
X12197991Y-15026627D01*
X12197991Y-15026627D02*
X12188468Y-15055198D01*
X12188468Y-15055198D02*
X12074182Y-15169484D01*
X12074182Y-15169484D02*
X12197991Y-15169484D01*
X12436087Y-15169484D02*
X12436087Y-14969484D01*
X12521801Y-15169484D02*
X12521801Y-15064722D01*
X12521801Y-15064722D02*
X12512277Y-15045674D01*
X12512277Y-15045674D02*
X12493230Y-15036150D01*
X12493230Y-15036150D02*
X12464658Y-15036150D01*
X12464658Y-15036150D02*
X12445610Y-15045674D01*
X12445610Y-15045674D02*
X12436087Y-15055198D01*
X12645610Y-15169484D02*
X12626563Y-15159960D01*
X12626563Y-15159960D02*
X12617039Y-15150436D01*
X12617039Y-15150436D02*
X12607515Y-15131388D01*
X12607515Y-15131388D02*
X12607515Y-15074246D01*
X12607515Y-15074246D02*
X12617039Y-15055198D01*
X12617039Y-15055198D02*
X12626563Y-15045674D01*
X12626563Y-15045674D02*
X12645610Y-15036150D01*
X12645610Y-15036150D02*
X12674182Y-15036150D01*
X12674182Y-15036150D02*
X12693230Y-15045674D01*
X12693230Y-15045674D02*
X12702753Y-15055198D01*
X12702753Y-15055198D02*
X12712277Y-15074246D01*
X12712277Y-15074246D02*
X12712277Y-15131388D01*
X12712277Y-15131388D02*
X12702753Y-15150436D01*
X12702753Y-15150436D02*
X12693230Y-15159960D01*
X12693230Y-15159960D02*
X12674182Y-15169484D01*
X12674182Y-15169484D02*
X12645610Y-15169484D01*
X12826563Y-15169484D02*
X12807515Y-15159960D01*
X12807515Y-15159960D02*
X12797991Y-15140912D01*
X12797991Y-15140912D02*
X12797991Y-14969484D01*
X12978944Y-15159960D02*
X12959896Y-15169484D01*
X12959896Y-15169484D02*
X12921801Y-15169484D01*
X12921801Y-15169484D02*
X12902753Y-15159960D01*
X12902753Y-15159960D02*
X12893230Y-15140912D01*
X12893230Y-15140912D02*
X12893230Y-15064722D01*
X12893230Y-15064722D02*
X12902753Y-15045674D01*
X12902753Y-15045674D02*
X12921801Y-15036150D01*
X12921801Y-15036150D02*
X12959896Y-15036150D01*
X12959896Y-15036150D02*
X12978944Y-15045674D01*
X12978944Y-15045674D02*
X12988468Y-15064722D01*
X12988468Y-15064722D02*
X12988468Y-15083769D01*
X12988468Y-15083769D02*
X12893230Y-15102817D01*
X13064658Y-15159960D02*
X13083706Y-15169484D01*
X13083706Y-15169484D02*
X13121801Y-15169484D01*
X13121801Y-15169484D02*
X13140849Y-15159960D01*
X13140849Y-15159960D02*
X13150372Y-15140912D01*
X13150372Y-15140912D02*
X13150372Y-15131388D01*
X13150372Y-15131388D02*
X13140849Y-15112341D01*
X13140849Y-15112341D02*
X13121801Y-15102817D01*
X13121801Y-15102817D02*
X13093230Y-15102817D01*
X13093230Y-15102817D02*
X13074182Y-15093293D01*
X13074182Y-15093293D02*
X13064658Y-15074246D01*
X13064658Y-15074246D02*
X13064658Y-15064722D01*
X13064658Y-15064722D02*
X13074182Y-15045674D01*
X13074182Y-15045674D02*
X13093230Y-15036150D01*
X13093230Y-15036150D02*
X13121801Y-15036150D01*
X13121801Y-15036150D02*
X13140849Y-15045674D01*
X13217039Y-15245674D02*
X13226563Y-15236150D01*
X13226563Y-15236150D02*
X13245611Y-15207579D01*
X13245611Y-15207579D02*
X13255134Y-15188531D01*
X13255134Y-15188531D02*
X13264658Y-15159960D01*
X13264658Y-15159960D02*
X13274182Y-15112341D01*
X13274182Y-15112341D02*
X13274182Y-15074246D01*
X13274182Y-15074246D02*
X13264658Y-15026627D01*
X13264658Y-15026627D02*
X13255134Y-14998055D01*
X13255134Y-14998055D02*
X13245611Y-14979008D01*
X13245611Y-14979008D02*
X13226563Y-14950436D01*
X13226563Y-14950436D02*
X13217039Y-14940912D01*
M02*
