M48
; DRILL file {KiCad 9.0.2} date 2025-06-24T15:08:36-0400
; FORMAT={-:-/ absolute / metric / decimal}
; #@! TF.CreationDate,2025-06-24T15:08:36-04:00
; #@! TF.GenerationSoftware,Kicad,Pcbnew,9.0.2
; #@! TF.FileFunction,Plated,1,2,PTH
FMAT,2
METRIC
; #@! TA.AperFunction,Plated,PTH,ViaDrill
T1C0.200
; #@! TA.AperFunction,Plated,PTH,ComponentDrill
T2C0.700
; #@! TA.AperFunction,Plated,PTH,ComponentDrill
T3C1.000
%
G90
G05
T1
X85.618Y-97.843
X85.727Y-92.837
X85.816Y-106.999
X86.708Y-105.569
X86.778Y-109.034
X87.527Y-94.478
X87.792Y-104.178
X88.01Y-70.614
X88.445Y-95.448
X88.83Y-67.34
X89.287Y-105.717
X89.966Y-92.039
X90.694Y-105.12
X91.228Y-103.878
X92.061Y-103.586
X93.816Y-108.241
X94.722Y-106.359
X97.009Y-86.848
X98.41Y-103.82
X99.756Y-122.912
X103.346Y-126.318
T2
X94.26Y-102.1
X94.26Y-105.25
X99.34Y-102.1
X99.34Y-105.25
T3
X106.875Y-76.95
X106.875Y-79.49
X106.875Y-82.03
X106.875Y-84.57
X106.875Y-87.11
X106.875Y-89.65
X106.875Y-92.19
X106.875Y-94.73
X106.875Y-97.27
X106.875Y-99.81
X106.875Y-102.35
X106.875Y-104.89
X106.875Y-107.43
X106.875Y-109.97
X106.875Y-112.51
X106.875Y-115.05
X109.415Y-76.95
X109.415Y-79.49
X109.415Y-82.03
X109.415Y-84.57
X109.415Y-87.11
X109.415Y-89.65
X109.415Y-92.19
X109.415Y-94.73
X109.415Y-97.27
X109.415Y-99.81
X109.415Y-102.35
X109.415Y-104.89
X109.415Y-107.43
X109.415Y-109.97
X109.415Y-112.51
X109.415Y-115.05
M30
