%TF.GenerationSoftware,KiCad,Pcbnew,9.0.2*%
%TF.CreationDate,2025-06-23T14:55:44-04:00*%
%TF.ProjectId,uconsole-expansion-card-template,75636f6e-736f-46c6-952d-657870616e73,0.1*%
%TF.SameCoordinates,Original*%
%TF.FileFunction,Copper,L2,Bot*%
%TF.FilePolarity,Positive*%
%FSLAX46Y46*%
G04 Gerber Fmt 4.6, Leading zero omitted, Abs format (unit mm)*
G04 Created by KiCad (PCBNEW 9.0.2) date 2025-06-23 14:55:44*
%MOMM*%
%LPD*%
G01*
G04 APERTURE LIST*
G04 Aperture macros list*
%AMRoundRect*
0 Rectangle with rounded corners*
0 $1 Rounding radius*
0 $2 $3 $4 $5 $6 $7 $8 $9 X,Y pos of 4 corners*
0 Add a 4 corners polygon primitive as box body*
4,1,4,$2,$3,$4,$5,$6,$7,$8,$9,$2,$3,0*
0 Add four circle primitives for the rounded corners*
1,1,$1+$1,$2,$3*
1,1,$1+$1,$4,$5*
1,1,$1+$1,$6,$7*
1,1,$1+$1,$8,$9*
0 Add four rect primitives between the rounded corners*
20,1,$1+$1,$2,$3,$4,$5,0*
20,1,$1+$1,$4,$5,$6,$7,0*
20,1,$1+$1,$6,$7,$8,$9,0*
20,1,$1+$1,$8,$9,$2,$3,0*%
G04 Aperture macros list end*
%TA.AperFunction,ComponentPad*%
%ADD10C,1.400000*%
%TD*%
%TA.AperFunction,ConnectorPad*%
%ADD11R,2.300000X0.600000*%
%TD*%
%TA.AperFunction,ConnectorPad*%
%ADD12RoundRect,0.250000X0.250000X0.750000X-0.250000X0.750000X-0.250000X-0.750000X0.250000X-0.750000X0*%
%TD*%
%TA.AperFunction,ComponentPad*%
%ADD13R,1.700000X1.700000*%
%TD*%
%TA.AperFunction,ComponentPad*%
%ADD14C,1.700000*%
%TD*%
%TA.AperFunction,ViaPad*%
%ADD15C,0.800000*%
%TD*%
%TA.AperFunction,Conductor*%
%ADD16C,0.300000*%
%TD*%
%TA.AperFunction,Conductor*%
%ADD17C,0.250000*%
%TD*%
%TA.AperFunction,Conductor*%
%ADD18C,0.500000*%
%TD*%
G04 APERTURE END LIST*
D10*
%TO.P,R2,1*%
%TO.N,+3V3*%
X100210000Y-92750000D03*
%TO.P,R2,2*%
%TO.N,unconnected-(R2-Pad2)*%
X105290000Y-92750000D03*
%TD*%
%TO.P,R1,1*%
%TO.N,+3V3*%
X100210000Y-89600000D03*
%TO.P,R1,2*%
%TO.N,/GPIO45{slash}I2C_SCL*%
X105290000Y-89600000D03*
%TD*%
D11*
%TO.P,U3,2,5V*%
%TO.N,+5V*%
X116485000Y-111380000D03*
%TO.P,U3,4,5V*%
X116485000Y-110580000D03*
%TO.P,U3,6,5V*%
X116485000Y-109780000D03*
%TO.P,U3,8,5V*%
X116485000Y-108980000D03*
%TO.P,U3,10,5V*%
X116485000Y-108180000D03*
%TO.P,U3,12,GND*%
%TO.N,GND*%
X116485000Y-107380000D03*
%TO.P,U3,14,SPK_RP*%
%TO.N,/SPEAKER_RP*%
X116485000Y-106580000D03*
%TO.P,U3,16,SPK_RN*%
%TO.N,/SPEAKER_RN*%
X116485000Y-105780000D03*
%TO.P,U3,18,GPIO28*%
%TO.N,/GPIO28*%
X116485000Y-101780000D03*
%TO.P,U3,20,GPIO29*%
%TO.N,/GPIO29*%
X116485000Y-100980000D03*
%TO.P,U3,22,GPIO30*%
%TO.N,/GPIO30*%
X116485000Y-100180000D03*
%TO.P,U3,24,GPIO31*%
%TO.N,/GPIO31*%
X116485000Y-99380000D03*
%TO.P,U3,26,GPIO32*%
%TO.N,/GPIO32*%
X116485000Y-98580000D03*
%TO.P,U3,28,GPIO33*%
%TO.N,/GPIO33*%
X116485000Y-97780000D03*
%TO.P,U3,30,GPIO34*%
%TO.N,/GPIO34*%
X116485000Y-96980000D03*
%TO.P,U3,32,GPIO35*%
%TO.N,/GPIO35*%
X116485000Y-96180000D03*
%TO.P,U3,34,GPIO36*%
%TO.N,/GPIO36*%
X116485000Y-95380000D03*
%TO.P,U3,36,GPIO37*%
%TO.N,/GPIO37*%
X116485000Y-94580000D03*
%TO.P,U3,38,GPIO38*%
%TO.N,/GPIO38*%
X116485000Y-93780000D03*
%TO.P,U3,40,GPIO39*%
%TO.N,/GPIO39*%
X116485000Y-92980000D03*
%TO.P,U3,42,GPIO40*%
%TO.N,/GPIO40*%
X116485000Y-92180000D03*
%TO.P,U3,44,GPIO41*%
%TO.N,/GPIO41*%
X116485000Y-91380000D03*
%TO.P,U3,46,GPIO42*%
%TO.N,/GPIO42{slash}CAM_EN*%
X116485000Y-90580000D03*
%TO.P,U3,48,GPIO43*%
%TO.N,/GPIO43{slash}CAM_LED*%
X116485000Y-89780000D03*
%TO.P,U3,50,GPIO44*%
%TO.N,/GPIO44{slash}I2C_SDA*%
X116485000Y-88980000D03*
%TO.P,U3,52,GPIO45*%
%TO.N,/GPIO45{slash}I2C_SCL*%
X116485000Y-88180000D03*
%TD*%
D12*
%TO.P,U2,1,P1*%
%TO.N,/SPEAKER_LP*%
X109965000Y-131000000D03*
%TO.P,U2,2,N1*%
%TO.N,/SPEAKER_LN*%
X109965000Y-134000000D03*
%TO.P,U2,3,P2*%
%TO.N,/SPEAKER_LP*%
X95195000Y-134000000D03*
%TO.P,U2,4,N2*%
%TO.N,/SPEAKER_LN*%
X95195000Y-131000000D03*
%TD*%
D13*
%TO.P,J1,1,Pin_1*%
%TO.N,/GPIO28*%
X93625000Y-123550000D03*
D14*
%TO.P,J1,2,Pin_2*%
%TO.N,/GPIO29*%
X91085000Y-123550000D03*
%TO.P,J1,3,Pin_3*%
%TO.N,/GPIO30*%
X93625000Y-121010000D03*
%TO.P,J1,4,Pin_4*%
%TO.N,/GPIO31*%
X91085000Y-121010000D03*
%TO.P,J1,5,Pin_5*%
%TO.N,/GPIO32*%
X93625000Y-118470000D03*
%TO.P,J1,6,Pin_6*%
%TO.N,/GPIO33*%
X91085000Y-118470000D03*
%TO.P,J1,7,Pin_7*%
%TO.N,/GPIO34*%
X93625000Y-115930000D03*
%TO.P,J1,8,Pin_8*%
%TO.N,/GPIO35*%
X91085000Y-115930000D03*
%TO.P,J1,9,Pin_9*%
%TO.N,/GPIO36*%
X93625000Y-113390000D03*
%TO.P,J1,10,Pin_10*%
%TO.N,/GPIO37*%
X91085000Y-113390000D03*
%TO.P,J1,11,Pin_11*%
%TO.N,/GPIO38*%
X93625000Y-110850000D03*
%TO.P,J1,12,Pin_12*%
%TO.N,/GPIO39*%
X91085000Y-110850000D03*
%TO.P,J1,13,Pin_13*%
%TO.N,/GPIO40*%
X93625000Y-108310000D03*
%TO.P,J1,14,Pin_14*%
%TO.N,/GPIO41*%
X91085000Y-108310000D03*
%TO.P,J1,15,Pin_15*%
%TO.N,/GPIO42{slash}CAM_EN*%
X93625000Y-105770000D03*
%TO.P,J1,16,Pin_16*%
%TO.N,/GPIO43{slash}CAM_LED*%
X91085000Y-105770000D03*
%TO.P,J1,17,Pin_17*%
%TO.N,/GPIO44{slash}I2C_SDA*%
X93625000Y-103230000D03*
%TO.P,J1,18,Pin_18*%
%TO.N,/GPIO45{slash}I2C_SCL*%
X91085000Y-103230000D03*
%TO.P,J1,19,Pin_19*%
%TO.N,/GPIO44{slash}I2C_SDA*%
X93625000Y-100690000D03*
%TO.P,J1,20,Pin_20*%
%TO.N,/GPIO45{slash}I2C_SCL*%
X91085000Y-100690000D03*
%TO.P,J1,21,Pin_21*%
%TO.N,/GPIO44{slash}I2C_SDA*%
X93625000Y-98150000D03*
%TO.P,J1,22,Pin_22*%
%TO.N,/GPIO45{slash}I2C_SCL*%
X91085000Y-98150000D03*
%TO.P,J1,23,Pin_23*%
%TO.N,+3V3*%
X93625000Y-95610000D03*
%TO.P,J1,24,Pin_24*%
X91085000Y-95610000D03*
%TO.P,J1,25,Pin_25*%
X93625000Y-93070000D03*
%TO.P,J1,26,Pin_26*%
X91085000Y-93070000D03*
%TO.P,J1,27,Pin_27*%
%TO.N,+5V*%
X93625000Y-90530000D03*
%TO.P,J1,28,Pin_28*%
X91085000Y-90530000D03*
%TO.P,J1,29,Pin_29*%
%TO.N,GND*%
X93625000Y-87990000D03*
%TO.P,J1,30,Pin_30*%
X91085000Y-87990000D03*
%TO.P,J1,31,Pin_31*%
X93625000Y-85450000D03*
%TO.P,J1,32,Pin_32*%
X91085000Y-85450000D03*
%TD*%
D12*
%TO.P,U1,1,P1*%
%TO.N,/SPEAKER_RP*%
X109965000Y-66000000D03*
%TO.P,U1,2,N1*%
%TO.N,/SPEAKER_RN*%
X109965000Y-69000000D03*
%TO.P,U1,3,P2*%
%TO.N,/SPEAKER_RP*%
X95195000Y-69000000D03*
%TO.P,U1,4,N2*%
%TO.N,/SPEAKER_RN*%
X95195000Y-66000000D03*
%TD*%
D15*
%TO.N,+3V3*%
X97000000Y-79750000D03*
%TO.N,/GPIO45{slash}I2C_SCL*%
X96175000Y-89473500D03*
%TO.N,+3V3*%
X108562600Y-94761400D03*
X95000000Y-79750000D03*
%TO.N,GND*%
X114706400Y-108045400D03*
X101832400Y-87210400D03*
X108964000Y-86793900D03*
%TO.N,+5V*%
X104416400Y-114138000D03*
X101815500Y-91811100D03*
%TO.N,/CAM1_CN*%
X105418400Y-86190700D03*
X104521900Y-83512600D03*
X108815100Y-89785100D03*
X110720300Y-89709700D03*
%TO.N,/CAM1_CP*%
X103750000Y-79425000D03*
X96972800Y-81500000D03*
X97137100Y-90385600D03*
X111353000Y-91245800D03*
%TO.N,/CAM1_DP2*%
X109639100Y-82641800D03*
X107671800Y-88214100D03*
%TO.N,/SPEAKER_RN*%
X100424600Y-79087100D03*
X111923900Y-106979800D03*
%TO.N,/SPEAKER_RP*%
X99705000Y-80071400D03*
X108399800Y-110007900D03*
%TO.N,/SPEAKER_LN*%
X112227300Y-128950000D03*
%TO.N,/SPEAKER_LP*%
X108839500Y-130319500D03*
%TD*%
D16*
%TO.N,+3V3*%
X95000000Y-79750000D02*
X97000000Y-79750000D01*
D17*
%TO.N,/CAM1_CP*%
X98346000Y-80798200D02*
X102376800Y-80798200D01*
X97644200Y-81500000D02*
X98346000Y-80798200D01*
X102376800Y-80798200D02*
X103750000Y-79425000D01*
X96972800Y-81500000D02*
X97644200Y-81500000D01*
%TO.N,/GPIO43{slash}CAM_LED*%
X116485000Y-89780000D02*
X115008300Y-89780000D01*
X113269900Y-91518400D02*
X115008300Y-89780000D01*
X113269900Y-92105300D02*
X113269900Y-91518400D01*
X112579600Y-92795600D02*
X113269900Y-92105300D01*
X112194900Y-92795600D02*
X112579600Y-92795600D01*
X109050700Y-95939800D02*
X112194900Y-92795600D01*
X108809700Y-95939800D02*
X109050700Y-95939800D01*
X105329500Y-99420000D02*
X108809700Y-95939800D01*
X93224000Y-99420000D02*
X105329500Y-99420000D01*
X92448300Y-100195700D02*
X93224000Y-99420000D01*
X92448300Y-101005600D02*
X92448300Y-100195700D01*
X91493900Y-101960000D02*
X92448300Y-101005600D01*
X90664500Y-101960000D02*
X91493900Y-101960000D01*
X89897300Y-102727200D02*
X90664500Y-101960000D01*
X89897300Y-104582300D02*
X89897300Y-102727200D01*
X91085000Y-105770000D02*
X89897300Y-104582300D01*
%TO.N,/GPIO42{slash}CAM_EN*%
X116485000Y-90580000D02*
X115008300Y-90580000D01*
X98219400Y-101175600D02*
X93625000Y-105770000D01*
X103775700Y-101175600D02*
X98219400Y-101175600D01*
X103803700Y-101147600D02*
X103775700Y-101175600D01*
X103803700Y-101147600D02*
X103775700Y-101175600D01*
X104068300Y-100883000D02*
X103803700Y-101147600D01*
X104505300Y-100883000D02*
X104068300Y-100883000D01*
X104557700Y-100830600D02*
X104505300Y-100883000D01*
X104557700Y-100830600D02*
X104505300Y-100883000D01*
X105616100Y-99772200D02*
X104557700Y-100830600D01*
X105803500Y-99772200D02*
X105616100Y-99772200D01*
X105901500Y-99674200D02*
X105803500Y-99772200D01*
X105901500Y-99674200D02*
X105803500Y-99772200D01*
X113721600Y-91866700D02*
X115008300Y-90580000D01*
X113721600Y-92292400D02*
X113721600Y-91866700D01*
X112766700Y-93247300D02*
X113721600Y-92292400D01*
X112440300Y-93247300D02*
X112766700Y-93247300D01*
X109201400Y-96486200D02*
X112440300Y-93247300D01*
X109089200Y-96486200D02*
X109201400Y-96486200D01*
X108028700Y-97546700D02*
X109089200Y-96486200D01*
X108028700Y-97547000D02*
X108028700Y-97546700D01*
X105901500Y-99674200D02*
X108028700Y-97547000D01*
%TO.N,/GPIO44{slash}I2C_SDA*%
X116485000Y-88980000D02*
X115008300Y-88980000D01*
X112818200Y-91170100D02*
X115008300Y-88980000D01*
X112818200Y-91918200D02*
X112818200Y-91170100D01*
X112392500Y-92343900D02*
X112818200Y-91918200D01*
X111887700Y-92343900D02*
X112392500Y-92343900D01*
X109326800Y-94904800D02*
X111887700Y-92343900D01*
X109326800Y-95024900D02*
X109326800Y-94904800D01*
X108863600Y-95488100D02*
X109326800Y-95024900D01*
X108495200Y-95488100D02*
X108863600Y-95488100D01*
X105833300Y-98150000D02*
X108495200Y-95488100D01*
X93625000Y-98150000D02*
X105833300Y-98150000D01*
%TO.N,/GPIO45{slash}I2C_SCL*%
X96015700Y-89314200D02*
X96175000Y-89473500D01*
X90581400Y-89314200D02*
X96015700Y-89314200D01*
X89891800Y-90003800D02*
X90581400Y-89314200D01*
X89891800Y-96956800D02*
X89891800Y-90003800D01*
X91085000Y-98150000D02*
X89891800Y-96956800D01*
X104467200Y-88554600D02*
X105290000Y-89377400D01*
X97093900Y-88554600D02*
X104467200Y-88554600D01*
X96175000Y-89473500D02*
X97093900Y-88554600D01*
X105290000Y-89377400D02*
X105290000Y-89600000D01*
X108195200Y-89377400D02*
X105290000Y-89377400D01*
X109392600Y-88180000D02*
X108195200Y-89377400D01*
X116485000Y-88180000D02*
X109392600Y-88180000D01*
%TO.N,/GPIO41*%
X116485000Y-91380000D02*
X115008300Y-91380000D01*
X114173300Y-92215000D02*
X115008300Y-91380000D01*
X114173300Y-92479500D02*
X114173300Y-92215000D01*
X112953800Y-93699000D02*
X114173300Y-92479500D01*
X112689300Y-93699000D02*
X112953800Y-93699000D01*
X108521900Y-97866400D02*
X112689300Y-93699000D01*
X108348100Y-97866400D02*
X108521900Y-97866400D01*
X105990600Y-100223900D02*
X108348100Y-97866400D01*
X105803200Y-100223900D02*
X105990600Y-100223900D01*
X98987100Y-107040000D02*
X105803200Y-100223900D01*
X92355000Y-107040000D02*
X98987100Y-107040000D01*
X91085000Y-108310000D02*
X92355000Y-107040000D01*
%TO.N,/GPIO40*%
X116485000Y-92180000D02*
X115008300Y-92180000D01*
X114625000Y-92563300D02*
X115008300Y-92180000D01*
X114625000Y-92666600D02*
X114625000Y-92563300D01*
X113140900Y-94150700D02*
X114625000Y-92666600D01*
X113037600Y-94150700D02*
X113140900Y-94150700D01*
X108797000Y-98391300D02*
X113037600Y-94150700D01*
X108462000Y-98391300D02*
X108797000Y-98391300D01*
X98543300Y-108310000D02*
X108462000Y-98391300D01*
X93625000Y-108310000D02*
X98543300Y-108310000D01*
%TO.N,/GPIO39*%
X116485000Y-92980000D02*
X115008300Y-92980000D01*
X114950400Y-92980000D02*
X115008300Y-92980000D01*
X109087400Y-98843000D02*
X114950400Y-92980000D01*
X108649200Y-98843000D02*
X109087400Y-98843000D01*
X97912200Y-109580000D02*
X108649200Y-98843000D01*
X92355000Y-109580000D02*
X97912200Y-109580000D01*
X91085000Y-110850000D02*
X92355000Y-109580000D01*
%TO.N,/GPIO38*%
X115152400Y-93780000D02*
X116485000Y-93780000D01*
X114933400Y-93999000D02*
X115152400Y-93780000D01*
X114933400Y-93999000D02*
X115152400Y-93780000D01*
X113864500Y-94704700D02*
X114044300Y-94524900D01*
X113864500Y-94808400D02*
X113864500Y-94704700D01*
X109378200Y-99294700D02*
X113864500Y-94808400D01*
X108909800Y-99294700D02*
X109378200Y-99294700D01*
X97354500Y-110850000D02*
X108909800Y-99294700D01*
X93625000Y-110850000D02*
X97354500Y-110850000D01*
X114668800Y-94263600D02*
X114933400Y-93999000D01*
X114305600Y-94263600D02*
X114668800Y-94263600D01*
X114044300Y-94524900D02*
X114305600Y-94263600D01*
X114044300Y-94524900D02*
X114305600Y-94263600D01*
%TO.N,/GPIO37*%
X116485000Y-94580000D02*
X115008300Y-94580000D01*
X114873000Y-94715300D02*
X115008300Y-94580000D01*
X114633500Y-94715300D02*
X114873000Y-94715300D01*
X109602400Y-99746400D02*
X114633500Y-94715300D01*
X109116800Y-99746400D02*
X109602400Y-99746400D01*
X96743200Y-112120000D02*
X109116800Y-99746400D01*
X92355000Y-112120000D02*
X96743200Y-112120000D01*
X91085000Y-113390000D02*
X92355000Y-112120000D01*
%TO.N,/GPIO36*%
X114776900Y-95380000D02*
X116485000Y-95380000D01*
X109958800Y-100198100D02*
X114776900Y-95380000D01*
X109323800Y-100198100D02*
X109958800Y-100198100D01*
X96131900Y-113390000D02*
X109323800Y-100198100D01*
X93625000Y-113390000D02*
X96131900Y-113390000D01*
%TO.N,/GPIO35*%
X114542300Y-96317600D02*
X114778200Y-96317600D01*
X110258600Y-100601300D02*
X114542300Y-96317600D01*
X110194400Y-100601300D02*
X110258600Y-100601300D01*
X96135700Y-114660000D02*
X110194400Y-100601300D01*
X92355000Y-114660000D02*
X96135700Y-114660000D01*
X91085000Y-115930000D02*
X92355000Y-114660000D01*
X114915800Y-96180000D02*
X116485000Y-96180000D01*
X114778200Y-96317600D02*
X114915800Y-96180000D01*
X114778200Y-96317600D02*
X114915800Y-96180000D01*
%TO.N,/GPIO34*%
X116485000Y-96980000D02*
X115008300Y-96980000D01*
X113377700Y-98356900D02*
X114436100Y-97298500D01*
X113141800Y-98356900D02*
X113377700Y-98356900D01*
X95568700Y-115930000D02*
X113141800Y-98356900D01*
X93625000Y-115930000D02*
X95568700Y-115930000D01*
X114904900Y-97083400D02*
X115008300Y-96980000D01*
X114651200Y-97083400D02*
X114904900Y-97083400D01*
X114436100Y-97298500D02*
X114651200Y-97083400D01*
X114436100Y-97298500D02*
X114651200Y-97083400D01*
%TO.N,/GPIO33*%
X95173400Y-117200000D02*
X114358600Y-98014800D01*
X92355000Y-117200000D02*
X95173400Y-117200000D01*
X91085000Y-118470000D02*
X92355000Y-117200000D01*
X114593400Y-97780000D02*
X116485000Y-97780000D01*
X114358600Y-98014800D02*
X114593400Y-97780000D01*
X114358600Y-98014800D02*
X114593400Y-97780000D01*
%TO.N,/GPIO32*%
X95118300Y-118470000D02*
X93625000Y-118470000D01*
X115008300Y-98580000D02*
X95118300Y-118470000D01*
X116485000Y-98580000D02*
X115008300Y-98580000D01*
%TO.N,/GPIO31*%
X94648300Y-119740000D02*
X115008300Y-99380000D01*
X92355000Y-119740000D02*
X94648300Y-119740000D01*
X91085000Y-121010000D02*
X92355000Y-119740000D01*
X116485000Y-99380000D02*
X115008300Y-99380000D01*
%TO.N,/GPIO30*%
X114920400Y-100180000D02*
X116485000Y-100180000D01*
X94090400Y-121010000D02*
X114920400Y-100180000D01*
X93625000Y-121010000D02*
X94090400Y-121010000D01*
%TO.N,/GPIO29*%
X116485000Y-100980000D02*
X115008300Y-100980000D01*
X92355000Y-122280000D02*
X91085000Y-123550000D01*
X94034700Y-122280000D02*
X92355000Y-122280000D01*
X104851300Y-111463400D02*
X94034700Y-122280000D01*
X104851300Y-111137000D02*
X104851300Y-111463400D01*
X115008300Y-100980000D02*
X104851300Y-111137000D01*
%TO.N,/GPIO28*%
X116485000Y-101780000D02*
X115008300Y-101780000D01*
X105303000Y-111872000D02*
X93625000Y-123550000D01*
X105303000Y-111485300D02*
X105303000Y-111872000D01*
X115008300Y-101780000D02*
X105303000Y-111485300D01*
D16*
%TO.N,+3V3*%
X91085000Y-93070000D02*
X93625000Y-93070000D01*
X97350000Y-95610000D02*
X93625000Y-95610000D01*
X100210000Y-92750000D02*
X97350000Y-95610000D01*
X108562600Y-94761300D02*
X108562600Y-94761400D01*
X102221300Y-94761300D02*
X108562600Y-94761300D01*
X100210000Y-92750000D02*
X102221300Y-94761300D01*
D17*
%TO.N,GND*%
X91085000Y-85450000D02*
X93625000Y-85450000D01*
X93625000Y-87990000D02*
X91085000Y-87990000D01*
X115008300Y-107743500D02*
X114706400Y-108045400D01*
X115008300Y-107380000D02*
X115008300Y-107743500D01*
X116485000Y-107380000D02*
X115008300Y-107380000D01*
X101052800Y-87990000D02*
X93625000Y-87990000D01*
X101832400Y-87210400D02*
X101052800Y-87990000D01*
X108547500Y-87210400D02*
X101832400Y-87210400D01*
X108964000Y-86793900D02*
X108547500Y-87210400D01*
D18*
%TO.N,+5V*%
X116485000Y-108180000D02*
X116485000Y-108980000D01*
X116485000Y-109780000D02*
X116485000Y-110580000D01*
X116485000Y-109780000D02*
X116485000Y-108980000D01*
X116485000Y-111380000D02*
X116485000Y-110580000D01*
X107174400Y-111380000D02*
X104416400Y-114138000D01*
X116485000Y-111380000D02*
X107174400Y-111380000D01*
X91085000Y-90530000D02*
X93625000Y-90530000D01*
X101329200Y-91324800D02*
X101815500Y-91811100D01*
X94419800Y-91324800D02*
X101329200Y-91324800D01*
X93625000Y-90530000D02*
X94419800Y-91324800D01*
D17*
%TO.N,/CAM1_CN*%
X104660100Y-85432400D02*
X104660100Y-83650800D01*
X105418400Y-86190700D02*
X104660100Y-85432400D01*
X110644900Y-89785100D02*
X110720300Y-89709700D01*
X108815100Y-89785100D02*
X110644900Y-89785100D01*
X104660100Y-83650800D02*
X104521900Y-83512600D01*
X104521900Y-83512600D02*
X104500000Y-83490700D01*
X104500000Y-83490700D02*
X104521900Y-83512600D01*
X105418400Y-86190700D02*
X105688900Y-86461200D01*
X105688900Y-86461200D02*
X105418400Y-86190700D01*
X110720300Y-89709700D02*
X110720300Y-89816300D01*
X110720300Y-89816300D02*
X110720300Y-89709700D01*
%TO.N,/CAM1_CP*%
X110793800Y-90686600D02*
X111353000Y-91245800D01*
X97438100Y-90686600D02*
X110793800Y-90686600D01*
X97137100Y-90385600D02*
X97438100Y-90686600D01*
X97137100Y-90385600D02*
X96972800Y-90221300D01*
X96972800Y-90221300D02*
X97137100Y-90385600D01*
%TO.N,/CAM1_DP2*%
X109690700Y-82693400D02*
X109639100Y-82641800D01*
X109690700Y-87121700D02*
X109690700Y-82693400D01*
X108598300Y-88214100D02*
X109690700Y-87121700D01*
X107671800Y-88214100D02*
X108598300Y-88214100D01*
%TO.N,/SPEAKER_RN*%
X94358100Y-66836900D02*
X95195000Y-66000000D01*
X94358100Y-70003300D02*
X94358100Y-66836900D01*
X94689300Y-70334500D02*
X94358100Y-70003300D01*
X100424600Y-70334500D02*
X94689300Y-70334500D01*
X113123700Y-105780000D02*
X116485000Y-105780000D01*
X111923900Y-106979800D02*
X113123700Y-105780000D01*
X100424600Y-70334500D02*
X100424600Y-79087100D01*
X108630500Y-70334500D02*
X100424600Y-70334500D01*
X109965000Y-69000000D02*
X108630500Y-70334500D01*
%TO.N,/SPEAKER_RP*%
X98195000Y-66000000D02*
X109965000Y-66000000D01*
X95195000Y-69000000D02*
X98195000Y-66000000D01*
X99705000Y-80072900D02*
X99705000Y-80073000D01*
X100737200Y-80072900D02*
X99705000Y-80072900D01*
X110822300Y-69987800D02*
X100737200Y-80072900D01*
X110822300Y-66857300D02*
X110822300Y-69987800D01*
X109965000Y-66000000D02*
X110822300Y-66857300D01*
X114004300Y-106580000D02*
X116485000Y-106580000D01*
X110576400Y-110007900D02*
X114004300Y-106580000D01*
X108399800Y-110007900D02*
X110576400Y-110007900D01*
X99705000Y-80073000D02*
X99705000Y-80071400D01*
X99705000Y-80071400D02*
X99706600Y-80071400D01*
X99706600Y-80071400D02*
X99705000Y-80071400D01*
%TO.N,/SPEAKER_LN*%
X110812100Y-133152900D02*
X110812100Y-129592800D01*
X109965000Y-134000000D02*
X110812100Y-133152900D01*
X96602200Y-129592800D02*
X95195000Y-131000000D01*
X110812100Y-129592800D02*
X96602200Y-129592800D01*
X111454900Y-128950000D02*
X110812100Y-129592800D01*
X112227300Y-128950000D02*
X111454900Y-128950000D01*
%TO.N,/SPEAKER_LP*%
X106965000Y-134000000D02*
X109965000Y-131000000D01*
X95195000Y-134000000D02*
X106965000Y-134000000D01*
X109520000Y-131000000D02*
X108839500Y-130319500D01*
X109965000Y-131000000D02*
X109520000Y-131000000D01*
%TD*%
M02*
