G04 #@! TF.GenerationSoftware,KiCad,Pcbnew,9.0.2*
G04 #@! TF.CreationDate,2025-06-24T15:08:32-04:00*
G04 #@! TF.ProjectId,uconsole-expansion-card-template,75636f6e-736f-46c6-952d-657870616e73,0.1*
G04 #@! TF.SameCoordinates,Original*
G04 #@! TF.FileFunction,Copper,L1,Top*
G04 #@! TF.FilePolarity,Positive*
%FSLAX46Y46*%
G04 Gerber Fmt 4.6, Leading zero omitted, Abs format (unit mm)*
G04 Created by KiCad (PCBNEW 9.0.2) date 2025-06-24 15:08:32*
%MOMM*%
%LPD*%
G01*
G04 APERTURE LIST*
G04 #@! TA.AperFunction,ComponentPad*
%ADD10C,1.400000*%
G04 #@! TD*
G04 #@! TA.AperFunction,ConnectorPad*
%ADD11R,2.300000X0.600000*%
G04 #@! TD*
G04 #@! TA.AperFunction,SMDPad,CuDef*
%ADD12R,0.300000X1.300000*%
G04 #@! TD*
G04 #@! TA.AperFunction,SMDPad,CuDef*
%ADD13R,1.800000X2.200000*%
G04 #@! TD*
G04 #@! TA.AperFunction,ComponentPad*
%ADD14R,1.700000X1.700000*%
G04 #@! TD*
G04 #@! TA.AperFunction,ComponentPad*
%ADD15C,1.700000*%
G04 #@! TD*
G04 #@! TA.AperFunction,ViaPad*
%ADD16C,0.500000*%
G04 #@! TD*
G04 #@! TA.AperFunction,Conductor*
%ADD17C,0.127000*%
G04 #@! TD*
G04 #@! TA.AperFunction,Conductor*
%ADD18C,0.140600*%
G04 #@! TD*
G04 #@! TA.AperFunction,Conductor*
%ADD19C,0.159800*%
G04 #@! TD*
G04 #@! TA.AperFunction,Conductor*
%ADD20C,0.200000*%
G04 #@! TD*
G04 APERTURE END LIST*
D10*
X99340000Y-105250000D03*
X94260000Y-105250000D03*
D11*
X84015000Y-88720000D03*
X84015000Y-89520000D03*
X84015000Y-90320000D03*
X84015000Y-91120000D03*
X84015000Y-91920000D03*
X84015000Y-92720000D03*
X84015000Y-93520000D03*
X84015000Y-94320000D03*
X84015000Y-98320000D03*
X84015000Y-99120000D03*
X84015000Y-99920000D03*
X84015000Y-100720000D03*
X84015000Y-101520000D03*
X84015000Y-102320000D03*
X84015000Y-103120000D03*
X84015000Y-103920000D03*
X84015000Y-104720000D03*
X84015000Y-105520000D03*
X84015000Y-106320000D03*
X84015000Y-107120000D03*
X84015000Y-107920000D03*
X84015000Y-108720000D03*
X84015000Y-109520000D03*
X84015000Y-110320000D03*
X84015000Y-111120000D03*
X84015000Y-111920000D03*
D12*
X92050000Y-126750000D03*
X92550000Y-126750000D03*
X93050000Y-126750000D03*
X93550000Y-126750000D03*
X94050000Y-126750000D03*
X94550000Y-126750000D03*
X95050000Y-126750000D03*
X95550000Y-126750000D03*
X96050000Y-126750000D03*
X96550000Y-126750000D03*
X97050000Y-126750000D03*
X97550000Y-126750000D03*
X98050000Y-126750000D03*
X98550000Y-126750000D03*
X99050000Y-126750000D03*
X99550000Y-126750000D03*
X100050000Y-126750000D03*
X100550000Y-126750000D03*
X101050000Y-126750000D03*
X101550000Y-126750000D03*
X102050000Y-126750000D03*
X102550000Y-126750000D03*
D13*
X90150000Y-130000000D03*
X104450000Y-130000000D03*
D10*
X99340000Y-102100000D03*
X94260000Y-102100000D03*
D14*
X106875000Y-76950000D03*
D15*
X109415000Y-76950000D03*
X106875000Y-79490000D03*
X109415000Y-79490000D03*
X106875000Y-82030000D03*
X109415000Y-82030000D03*
X106875000Y-84570000D03*
X109415000Y-84570000D03*
X106875000Y-87110000D03*
X109415000Y-87110000D03*
X106875000Y-89650000D03*
X109415000Y-89650000D03*
X106875000Y-92190000D03*
X109415000Y-92190000D03*
X106875000Y-94730000D03*
X109415000Y-94730000D03*
X106875000Y-97270000D03*
X109415000Y-97270000D03*
X106875000Y-99810000D03*
X109415000Y-99810000D03*
X106875000Y-102350000D03*
X109415000Y-102350000D03*
X106875000Y-104890000D03*
X109415000Y-104890000D03*
X106875000Y-107430000D03*
X109415000Y-107430000D03*
X106875000Y-109970000D03*
X109415000Y-109970000D03*
X106875000Y-112510000D03*
X109415000Y-112510000D03*
X106875000Y-115050000D03*
X109415000Y-115050000D03*
D16*
X88010000Y-70614000D03*
X88830000Y-67340000D03*
X103346100Y-126318100D03*
X97009500Y-86848000D03*
X87526600Y-94477600D03*
X99756000Y-122912400D03*
X89965800Y-92039200D03*
X98410000Y-103820000D03*
X89287050Y-105717050D03*
X85815800Y-106999200D03*
X86777700Y-109034100D03*
X93815506Y-108240994D03*
X87792256Y-104177744D03*
X86707600Y-105569500D03*
X85727500Y-92837400D03*
X90694362Y-105119850D03*
X94721600Y-106358700D03*
X88445500Y-95448000D03*
X85618500Y-97843300D03*
X91227800Y-103878500D03*
X92060600Y-103586000D03*
D17*
X87710000Y-87120000D02*
X87710000Y-70914000D01*
X86110000Y-88720000D02*
X87710000Y-87120000D01*
X87710000Y-70914000D02*
X88010000Y-70614000D01*
X84015000Y-88720000D02*
X86110000Y-88720000D01*
X88830000Y-67340000D02*
X88830000Y-87820000D01*
X87130000Y-89520000D02*
X84015000Y-89520000D01*
X88830000Y-87820000D02*
X87130000Y-89520000D01*
X103346100Y-93184600D02*
X97009500Y-86848000D01*
X103346100Y-126318100D02*
X103346100Y-93184600D01*
X87526600Y-101296600D02*
X87526600Y-94477600D01*
X99756000Y-113526000D02*
X87526600Y-101296600D01*
X99756000Y-122912400D02*
X99756000Y-113526000D01*
X99050000Y-126750000D02*
X99050000Y-125884800D01*
X99290800Y-114530800D02*
X90661500Y-105901500D01*
X99290800Y-125644000D02*
X99290800Y-114530800D01*
X90661500Y-105901500D02*
X90651500Y-105901500D01*
X85470000Y-100720000D02*
X84015000Y-100720000D01*
X90651500Y-105901500D02*
X85470000Y-100720000D01*
X99050000Y-125884800D02*
X99290800Y-125644000D01*
X99012000Y-114742000D02*
X85790000Y-101520000D01*
X99012000Y-125422800D02*
X99012000Y-114742000D01*
X85790000Y-101520000D02*
X84015000Y-101520000D01*
X98550000Y-125884800D02*
X99012000Y-125422800D01*
X98550000Y-126750000D02*
X98550000Y-125884800D01*
D18*
X98717900Y-121206000D02*
X98570300Y-121058300D01*
X97642900Y-121792000D02*
X98132100Y-121792000D01*
X97970000Y-119640000D02*
X98380300Y-119640000D01*
X98570300Y-119450000D02*
X98570300Y-114990300D01*
X97490000Y-120120000D02*
X97970000Y-119640000D01*
X97497600Y-123399000D02*
X97642900Y-123254000D01*
X97527400Y-125161000D02*
X97497600Y-125131000D01*
X98570300Y-114990300D02*
X96462200Y-112882200D01*
D17*
X97550000Y-126750000D02*
X97527400Y-126727400D01*
D18*
X85950000Y-103120000D02*
X84015000Y-103120000D01*
X89768350Y-106188350D02*
X89018350Y-106188350D01*
X97642900Y-122082000D02*
X97497600Y-121937000D01*
X97527400Y-126136000D02*
X97527400Y-125161000D01*
X98132100Y-122082000D02*
X97642900Y-122082000D01*
X98132100Y-123254000D02*
X98717900Y-122668000D01*
X98570300Y-121058300D02*
X98132100Y-120620000D01*
X89018350Y-106188350D02*
X86960000Y-104130000D01*
X97497600Y-121937000D02*
X97642900Y-121792000D01*
X97497600Y-120475000D02*
X97497600Y-120127600D01*
X98717900Y-122668000D02*
X98132100Y-122082000D01*
X97642900Y-123254000D02*
X98132100Y-123254000D01*
X96462200Y-112882200D02*
X89768350Y-106188350D01*
X97497600Y-125131000D02*
X97497600Y-123399000D01*
X86948400Y-104118400D02*
X85950000Y-103120000D01*
X98132100Y-120620000D02*
X97642900Y-120620000D01*
X97497600Y-120127600D02*
X97490000Y-120120000D01*
X98132100Y-121792000D02*
X98717900Y-121206000D01*
X97642900Y-120620000D02*
X97497600Y-120475000D01*
X98380300Y-119640000D02*
X98570300Y-119450000D01*
D17*
X97527400Y-126727400D02*
X97527400Y-126136000D01*
D18*
X97057100Y-120475000D02*
X97642900Y-121061000D01*
D17*
X89769000Y-106702400D02*
X88498400Y-106702400D01*
D18*
X97642900Y-122813000D02*
X97057100Y-123399000D01*
D17*
X85716000Y-103920000D02*
X84015000Y-103920000D01*
X93440900Y-111932200D02*
X93440900Y-110374300D01*
X88498400Y-106702400D02*
X85716000Y-103920000D01*
X97698300Y-116189600D02*
X93440900Y-111932200D01*
X97633600Y-122532300D02*
X97642900Y-122523000D01*
D18*
X97057100Y-125131000D02*
X97027400Y-125161000D01*
X98277400Y-121206000D02*
X98132100Y-121351000D01*
D17*
X97027400Y-126727400D02*
X97027400Y-126136000D01*
D18*
X98132100Y-122523000D02*
X98277400Y-122668000D01*
X97642900Y-121351000D02*
X97057100Y-121937000D01*
D17*
X97698300Y-119420000D02*
X97698300Y-116189600D01*
D18*
X97057100Y-120475000D02*
X97057100Y-120061200D01*
D17*
X93440900Y-110374300D02*
X89769000Y-106702400D01*
D18*
X98132100Y-122813000D02*
X97642900Y-122813000D01*
X98277400Y-122668000D02*
X98132100Y-122813000D01*
X97057100Y-120061200D02*
X97698300Y-119420000D01*
X97642900Y-122523000D02*
X98132100Y-122523000D01*
X97642900Y-121061000D02*
X98132100Y-121061000D01*
D17*
X97642900Y-122541600D02*
X97633600Y-122532300D01*
D18*
X97057100Y-123399000D02*
X97057100Y-125131000D01*
X98132100Y-121351000D02*
X97642900Y-121351000D01*
D17*
X97050000Y-126750000D02*
X97027400Y-126727400D01*
D18*
X97057100Y-121937000D02*
X97642900Y-122523000D01*
X98132100Y-121061000D02*
X98277400Y-121206000D01*
X97027400Y-125161000D02*
X97027400Y-126136000D01*
D19*
X94932300Y-118405000D02*
X95392600Y-118405000D01*
D17*
X86515000Y-106034700D02*
X86673800Y-106034700D01*
D19*
X96007300Y-125141000D02*
X96027400Y-125161000D01*
X94932300Y-121484000D02*
X95392600Y-121484000D01*
X95392600Y-119944000D02*
X96007300Y-120559000D01*
X96007300Y-122098000D02*
X96007300Y-125141000D01*
D17*
X92883500Y-111768900D02*
X96007300Y-114892700D01*
D19*
X94777400Y-119790000D02*
X94932300Y-119944000D01*
D17*
X96007300Y-114892700D02*
X96007300Y-117481000D01*
D19*
X96007300Y-117481000D02*
X95392600Y-118096000D01*
X95392600Y-121174000D02*
X94932300Y-121174000D01*
X94777400Y-121329000D02*
X94932300Y-121484000D01*
D17*
X92883500Y-110258900D02*
X92883500Y-111768900D01*
X87758700Y-107119600D02*
X89744200Y-107119600D01*
D19*
X94932300Y-119944000D02*
X95392600Y-119944000D01*
D17*
X84015000Y-105520000D02*
X86000300Y-105520000D01*
D19*
X94777400Y-118250000D02*
X94932300Y-118405000D01*
X94932300Y-119635000D02*
X94777400Y-119790000D01*
X95392600Y-118096000D02*
X94932300Y-118096000D01*
X95392600Y-119635000D02*
X94932300Y-119635000D01*
D17*
X89744200Y-107119600D02*
X92883500Y-110258900D01*
D19*
X96007300Y-120559000D02*
X95392600Y-121174000D01*
D17*
X86673800Y-106034700D02*
X87758700Y-107119600D01*
X96050000Y-126750000D02*
X96027400Y-126727400D01*
D19*
X94932300Y-121174000D02*
X94777400Y-121329000D01*
X95392600Y-118405000D02*
X96007300Y-119020000D01*
D17*
X96027400Y-126727400D02*
X96027400Y-126136000D01*
X86000300Y-105520000D02*
X86515000Y-106034700D01*
D19*
X96027400Y-125161000D02*
X96027400Y-126136000D01*
X95392600Y-121484000D02*
X96007300Y-122098000D01*
X96007300Y-119020000D02*
X95392600Y-119635000D01*
X94932300Y-118096000D02*
X94777400Y-118250000D01*
X95547500Y-120559000D02*
X95392600Y-120714000D01*
X95392600Y-120714000D02*
X94932300Y-120714000D01*
D17*
X95162500Y-114730900D02*
X92506800Y-112075200D01*
X87650200Y-107512000D02*
X86458200Y-106320000D01*
D19*
X95392600Y-121944000D02*
X95547500Y-122098000D01*
X95547500Y-122098000D02*
X95547500Y-125141000D01*
D17*
X89742500Y-107512000D02*
X87650200Y-107512000D01*
X95550000Y-125671100D02*
X95550000Y-126750000D01*
X92506800Y-112075200D02*
X92506800Y-110276300D01*
D19*
X94317600Y-118250000D02*
X94932300Y-118865000D01*
X95392600Y-120404000D02*
X95547500Y-120559000D01*
X95547500Y-119020000D02*
X95392600Y-119175000D01*
X95527400Y-125161000D02*
X95527400Y-125648500D01*
X94932300Y-118865000D02*
X95392600Y-118865000D01*
X94317600Y-121329000D02*
X94932300Y-121944000D01*
X94932300Y-120404000D02*
X95392600Y-120404000D01*
D17*
X95527400Y-125648500D02*
X95550000Y-125671100D01*
X95162500Y-117636000D02*
X95162500Y-114730900D01*
D19*
X94932300Y-117636000D02*
X94317600Y-118250000D01*
X94932300Y-121944000D02*
X95392600Y-121944000D01*
X94317600Y-119790000D02*
X94932300Y-120404000D01*
X95392600Y-118865000D02*
X95547500Y-119020000D01*
X95527400Y-125648500D02*
X95527400Y-126136000D01*
X94932300Y-119175000D02*
X94317600Y-119790000D01*
D17*
X86458200Y-106320000D02*
X84015000Y-106320000D01*
D19*
X95547500Y-125141000D02*
X95527400Y-125161000D01*
X94932300Y-120714000D02*
X94317600Y-121329000D01*
X95162500Y-117636000D02*
X94932300Y-117636000D01*
D17*
X92506800Y-110276300D02*
X89742500Y-107512000D01*
D19*
X95392600Y-119175000D02*
X94932300Y-119175000D01*
X93287100Y-116066000D02*
X93950000Y-116729000D01*
D17*
X84015000Y-107920000D02*
X85380200Y-107920000D01*
D19*
X93287100Y-120663000D02*
X92850900Y-120663000D01*
X93950000Y-118364000D02*
X93287100Y-119027000D01*
X93950000Y-116729000D02*
X93287100Y-117392000D01*
X93287100Y-117702000D02*
X93950000Y-118364000D01*
X92850900Y-122608000D02*
X93287100Y-122608000D01*
X93287100Y-119337000D02*
X93950000Y-120000000D01*
X93287100Y-119027000D02*
X92850900Y-119027000D01*
X92850900Y-120663000D02*
X92696000Y-120818000D01*
X92696000Y-115911000D02*
X92850900Y-116066000D01*
X93287100Y-117392000D02*
X92850900Y-117392000D01*
X92850900Y-116066000D02*
X93287100Y-116066000D01*
X93950000Y-120000000D02*
X93287100Y-120663000D01*
X93287100Y-122608000D02*
X93950000Y-123271000D01*
X93950000Y-123271000D02*
X93950000Y-123665000D01*
X92850900Y-119027000D02*
X92696000Y-119182000D01*
D17*
X93950000Y-114050800D02*
X93950000Y-115093000D01*
D19*
X92696000Y-122453000D02*
X92850900Y-122608000D01*
D17*
X85380200Y-107920000D02*
X89756300Y-107920000D01*
D19*
X92850900Y-117392000D02*
X92696000Y-117547000D01*
X92696000Y-117547000D02*
X92850900Y-117702000D01*
X92696000Y-119182000D02*
X92850900Y-119337000D01*
X93287100Y-120973000D02*
X93950000Y-121636000D01*
D17*
X92227400Y-112328200D02*
X93950000Y-114050800D01*
D19*
X92696000Y-115911000D02*
X92810100Y-115759000D01*
X93950000Y-115093000D02*
X93287100Y-115756000D01*
X92850900Y-119337000D02*
X93287100Y-119337000D01*
X93287100Y-115756000D02*
X92850900Y-115756000D01*
X92850900Y-122298000D02*
X92696000Y-122453000D01*
X92850900Y-115756000D02*
X92696000Y-115911000D01*
X94410200Y-124291000D02*
X94527400Y-124574000D01*
X93950000Y-123665000D02*
X94067200Y-123948000D01*
D17*
X94527400Y-126727400D02*
X94527400Y-126136000D01*
D19*
X92850900Y-117702000D02*
X93287100Y-117702000D01*
D17*
X89756300Y-107920000D02*
X92227400Y-110391100D01*
D19*
X92696000Y-120818000D02*
X92850900Y-120973000D01*
X94067200Y-123948000D02*
X94410200Y-124291000D01*
D17*
X92227400Y-110391100D02*
X92227400Y-112328200D01*
D19*
X94527400Y-124574000D02*
X94527400Y-126136000D01*
D17*
X94550000Y-126750000D02*
X94527400Y-126727400D01*
D19*
X93287100Y-122298000D02*
X92850900Y-122298000D01*
X92850900Y-120973000D02*
X93287100Y-120973000D01*
X93950000Y-121636000D02*
X93287100Y-122298000D01*
X92850900Y-123116000D02*
X93287100Y-123116000D01*
D17*
X91948700Y-111629200D02*
X91947900Y-111628400D01*
D19*
X92850900Y-118519000D02*
X92188000Y-119182000D01*
X93559200Y-124151000D02*
X93910200Y-124502000D01*
D17*
X86970400Y-108568900D02*
X86585100Y-108568900D01*
D19*
X93287100Y-120155000D02*
X92850900Y-120155000D01*
D17*
X92227400Y-112778800D02*
X92227400Y-112722400D01*
X92228900Y-114792400D02*
X92228900Y-112780300D01*
D19*
X92850900Y-116574000D02*
X93287100Y-116574000D01*
X93287100Y-123116000D02*
X93442000Y-123271000D01*
X93287100Y-118210000D02*
X93442000Y-118364000D01*
X92188000Y-119182000D02*
X92850900Y-119845000D01*
X93910200Y-124502000D02*
X94027400Y-124785000D01*
X92850900Y-118210000D02*
X93287100Y-118210000D01*
D17*
X91947200Y-111164400D02*
X91947200Y-110899100D01*
D19*
X92850900Y-121790000D02*
X92188000Y-122453000D01*
X92188000Y-120818000D02*
X92850900Y-121481000D01*
D17*
X91947900Y-111165100D02*
X91947200Y-111164400D01*
D19*
X92188000Y-117547000D02*
X92850900Y-118210000D01*
D17*
X92496400Y-115602600D02*
X92496400Y-115059900D01*
D19*
X93442000Y-118364000D02*
X93287100Y-118519000D01*
D17*
X94050000Y-125483100D02*
X94050000Y-126750000D01*
X87121500Y-108720000D02*
X86970400Y-108568900D01*
D19*
X92850900Y-120155000D02*
X92188000Y-120818000D01*
X93442000Y-120000000D02*
X93287100Y-120155000D01*
X93287100Y-116574000D02*
X93442000Y-116729000D01*
X94027400Y-125460500D02*
X94027400Y-126136000D01*
D17*
X94027400Y-125460500D02*
X94050000Y-125483100D01*
X92228900Y-112780300D02*
X92227400Y-112778800D01*
D19*
X94027400Y-124785000D02*
X94027400Y-125460500D01*
D17*
X91858900Y-110425500D02*
X90153400Y-108720000D01*
X91858900Y-110810800D02*
X91858900Y-110425500D01*
X90153400Y-108720000D02*
X87121500Y-108720000D01*
D19*
X92850900Y-116884000D02*
X92188000Y-117547000D01*
X93442000Y-123868000D02*
X93559200Y-124151000D01*
X92850900Y-121481000D02*
X93287100Y-121481000D01*
D17*
X91948700Y-112443700D02*
X91948700Y-111629200D01*
X92496400Y-115059900D02*
X92228900Y-114792400D01*
D19*
X93287100Y-116884000D02*
X92850900Y-116884000D01*
D17*
X86434000Y-108720000D02*
X84015000Y-108720000D01*
D19*
X93442000Y-123271000D02*
X93442000Y-123868000D01*
X93287100Y-121481000D02*
X93442000Y-121636000D01*
D17*
X91947200Y-110899100D02*
X91858900Y-110810800D01*
D19*
X93442000Y-116729000D02*
X93287100Y-116884000D01*
X92850900Y-119845000D02*
X93287100Y-119845000D01*
X92496400Y-115602600D02*
X92188000Y-115911000D01*
D17*
X86585100Y-108568900D02*
X86434000Y-108720000D01*
D19*
X93287100Y-119845000D02*
X93442000Y-120000000D01*
X93287100Y-118519000D02*
X92850900Y-118519000D01*
X93442000Y-121636000D02*
X93287100Y-121790000D01*
X93287100Y-121790000D02*
X92850900Y-121790000D01*
D17*
X91947900Y-111628400D02*
X91947900Y-111165100D01*
D19*
X92188000Y-122453000D02*
X92850900Y-123116000D01*
X92188000Y-115911000D02*
X92850900Y-116574000D01*
D17*
X92227400Y-112722400D02*
X91948700Y-112443700D01*
D19*
X90374400Y-112156000D02*
X90219500Y-112310000D01*
X91578000Y-123288000D02*
X92910200Y-124620000D01*
X90219500Y-118650000D02*
X90374400Y-118804000D01*
X90219500Y-113895000D02*
X90374400Y-114050000D01*
X90219500Y-120234000D02*
X90374400Y-120389000D01*
X91460800Y-122612000D02*
X91460800Y-123005000D01*
X91460800Y-121027000D02*
X90823300Y-121664000D01*
X92910200Y-124620000D02*
X93027400Y-124903000D01*
X90374400Y-118804000D02*
X90823300Y-118804000D01*
X93027400Y-124903000D02*
X93027400Y-126136000D01*
X91460800Y-113103000D02*
X90823300Y-113740000D01*
X90823300Y-115325000D02*
X90374400Y-115325000D01*
X91460800Y-116272000D02*
X90823300Y-116910000D01*
X90374400Y-115325000D02*
X90219500Y-115480000D01*
X90219500Y-115480000D02*
X90374400Y-115635000D01*
X90823300Y-121974000D02*
X91460800Y-122612000D01*
X90374400Y-118495000D02*
X90219500Y-118650000D01*
X90823300Y-113740000D02*
X90374400Y-113740000D01*
D17*
X85380200Y-110320000D02*
X85660200Y-110040000D01*
D19*
X90823300Y-112156000D02*
X90374400Y-112156000D01*
D17*
X93050000Y-126750000D02*
X93027400Y-126727400D01*
D19*
X91460800Y-119442000D02*
X90823300Y-120080000D01*
X90823300Y-116910000D02*
X90374400Y-116910000D01*
X90219500Y-117065000D02*
X90374400Y-117220000D01*
X91460800Y-111518000D02*
X90823300Y-112156000D01*
X90219500Y-121819000D02*
X90374400Y-121974000D01*
X90374400Y-116910000D02*
X90219500Y-117065000D01*
X90600000Y-110040000D02*
X91005000Y-110040000D01*
X90823300Y-120080000D02*
X90374400Y-120080000D01*
X90823300Y-118495000D02*
X90374400Y-118495000D01*
X90823300Y-117220000D02*
X91460800Y-117857000D01*
X91460800Y-110661000D02*
X91460800Y-111518000D01*
X90219500Y-112310000D02*
X90374400Y-112465000D01*
D17*
X93027400Y-126727400D02*
X93027400Y-126136000D01*
D19*
X90823300Y-120389000D02*
X91460800Y-121027000D01*
X90374400Y-120080000D02*
X90219500Y-120234000D01*
X90823300Y-118804000D02*
X91460800Y-119442000D01*
X90374400Y-114050000D02*
X90823300Y-114050000D01*
X90374400Y-113740000D02*
X90219500Y-113895000D01*
X91343600Y-110379000D02*
X91460800Y-110661000D01*
X91005000Y-110040000D02*
X91343600Y-110379000D01*
X90374400Y-121974000D02*
X90823300Y-121974000D01*
X90374400Y-121664000D02*
X90219500Y-121819000D01*
X90823300Y-115635000D02*
X91460800Y-116272000D01*
X91460800Y-114688000D02*
X90823300Y-115325000D01*
X90823300Y-114050000D02*
X91460800Y-114688000D01*
D17*
X84015000Y-110320000D02*
X85380200Y-110320000D01*
D19*
X91460800Y-117857000D02*
X90823300Y-118495000D01*
X90374400Y-117220000D02*
X90823300Y-117220000D01*
X90823300Y-121664000D02*
X90374400Y-121664000D01*
X90374400Y-112465000D02*
X90823300Y-112465000D01*
X90823300Y-112465000D02*
X91460800Y-113103000D01*
X90374400Y-115635000D02*
X90823300Y-115635000D01*
D17*
X85660200Y-110040000D02*
X90600000Y-110040000D01*
D19*
X90374400Y-120389000D02*
X90823300Y-120389000D01*
X91460800Y-123005000D02*
X91578000Y-123288000D01*
X90823300Y-120872000D02*
X90978200Y-121027000D01*
X90374400Y-119597000D02*
X89736900Y-120234000D01*
X92410200Y-124831000D02*
X92527400Y-125114000D01*
X90978200Y-117857000D02*
X90823300Y-118012000D01*
X90823300Y-116118000D02*
X90978200Y-116272000D01*
X90978200Y-122612000D02*
X90978200Y-123233000D01*
X90823300Y-113258000D02*
X90374400Y-113258000D01*
X90823300Y-119597000D02*
X90374400Y-119597000D01*
X90374400Y-120872000D02*
X90823300Y-120872000D01*
X90978200Y-116272000D02*
X90823300Y-116427000D01*
X89736900Y-117065000D02*
X90374400Y-117702000D01*
X90823300Y-118012000D02*
X90374400Y-118012000D01*
X90978200Y-113103000D02*
X90823300Y-113258000D01*
X90374400Y-121182000D02*
X89736900Y-121819000D01*
X90374400Y-119287000D02*
X90823300Y-119287000D01*
X90823300Y-114842000D02*
X90374400Y-114842000D01*
X90978200Y-123233000D02*
X91095400Y-123516000D01*
X90374400Y-122457000D02*
X90823300Y-122457000D01*
X90338176Y-111709000D02*
X89737038Y-112310138D01*
X89736900Y-120234000D02*
X90374400Y-120872000D01*
X92527400Y-125625000D02*
X92527400Y-126136000D01*
D17*
X90338350Y-111708950D02*
X90338400Y-111708900D01*
D19*
X90823300Y-122457000D02*
X90978200Y-122612000D01*
X90978200Y-114688000D02*
X90823300Y-114842000D01*
X90374400Y-112948000D02*
X90823300Y-112948000D01*
D17*
X90235700Y-111606300D02*
X90338400Y-111709000D01*
X87986700Y-111120000D02*
X84015000Y-111120000D01*
D19*
X89736900Y-113895000D02*
X90374400Y-114533000D01*
X90823300Y-114533000D02*
X90978200Y-114688000D01*
X90374400Y-114842000D02*
X89736900Y-115480000D01*
X90374400Y-117702000D02*
X90823300Y-117702000D01*
X89737038Y-112310138D02*
X90374400Y-112948000D01*
D17*
X88473000Y-111606300D02*
X90235700Y-111606300D01*
D19*
X90374400Y-113258000D02*
X89736900Y-113895000D01*
D17*
X90338400Y-111709000D02*
X90338350Y-111708950D01*
D19*
X89736900Y-115480000D02*
X90374400Y-116118000D01*
X90823300Y-121182000D02*
X90374400Y-121182000D01*
D17*
X92550000Y-125647600D02*
X92550000Y-126750000D01*
D19*
X92527400Y-125114000D02*
X92527400Y-125625000D01*
X91095400Y-123516000D02*
X92410200Y-124831000D01*
X90978200Y-119442000D02*
X90823300Y-119597000D01*
X90374400Y-116427000D02*
X89736900Y-117065000D01*
X89736900Y-118650000D02*
X90374400Y-119287000D01*
X90823300Y-116427000D02*
X90374400Y-116427000D01*
X90823300Y-119287000D02*
X90978200Y-119442000D01*
X90338400Y-111709000D02*
X90338176Y-111709000D01*
D17*
X92527400Y-125625000D02*
X92550000Y-125647600D01*
D19*
X90374400Y-116118000D02*
X90823300Y-116118000D01*
X90374400Y-118012000D02*
X89736900Y-118650000D01*
X89736900Y-121819000D02*
X90374400Y-122457000D01*
X90374400Y-114533000D02*
X90823300Y-114533000D01*
D17*
X88473000Y-111606300D02*
X87986700Y-111120000D01*
D19*
X90823300Y-112948000D02*
X90978200Y-113103000D01*
X90823300Y-117702000D02*
X90978200Y-117857000D01*
X90978200Y-121027000D02*
X90823300Y-121182000D01*
D20*
X90559300Y-92632700D02*
X89965800Y-92039200D01*
X96109700Y-101519700D02*
X96109700Y-98183100D01*
X98410000Y-103820000D02*
X96109700Y-101519700D01*
X89965800Y-92039200D02*
X90559300Y-92632700D01*
X96109700Y-98183100D02*
X89965800Y-92039200D01*
X90977000Y-105437000D02*
X93780994Y-108240994D01*
X98048500Y-127651700D02*
X98050000Y-127650200D01*
X95051500Y-127651700D02*
X96548500Y-127651700D01*
X85858100Y-104720000D02*
X86707600Y-105569500D01*
X98050000Y-127650200D02*
X98051500Y-127651700D01*
X85416700Y-90320000D02*
X85416700Y-92720000D01*
X106875000Y-124004500D02*
X102902500Y-127977000D01*
X95050000Y-126750000D02*
X95050000Y-127650000D01*
X87792256Y-104177744D02*
X87506800Y-103892288D01*
X90679850Y-105119850D02*
X86626700Y-101066700D01*
X87506800Y-103856800D02*
X85970000Y-102320000D01*
X87506800Y-103892288D02*
X87506800Y-103856800D01*
X98050000Y-126750000D02*
X98050000Y-127650200D01*
X87792256Y-104177744D02*
X88024512Y-104410000D01*
X101375300Y-127977000D02*
X101050000Y-127651700D01*
X86626700Y-99920000D02*
X85416700Y-99920000D01*
X93551500Y-127651700D02*
X95050000Y-127651700D01*
X84015000Y-99920000D02*
X85415000Y-99920000D01*
X96550000Y-127650200D02*
X96550000Y-127651700D01*
X98051500Y-127651700D02*
X99550000Y-127651700D01*
X88234300Y-114737600D02*
X88234300Y-123385100D01*
X88024512Y-104410000D02*
X88030000Y-104410000D01*
X90977000Y-105402488D02*
X90977000Y-105437000D01*
X86626700Y-101066700D02*
X86626700Y-99920000D01*
X92050000Y-127651700D02*
X93550000Y-127651700D01*
X90694362Y-105119850D02*
X90977000Y-105402488D01*
X95050000Y-127650200D02*
X95051500Y-127651700D01*
X93550000Y-127650000D02*
X93550000Y-127650200D01*
X96550000Y-127651700D02*
X98048500Y-127651700D01*
X101050000Y-126750000D02*
X101050000Y-127651700D01*
X106875000Y-115050000D02*
X106875000Y-112510000D01*
X85815800Y-106999200D02*
X85537500Y-106999200D01*
X85970000Y-102320000D02*
X84015000Y-102320000D01*
X109415000Y-115050000D02*
X109415000Y-112510000D01*
X86291800Y-109520000D02*
X86777700Y-109034100D01*
X93550000Y-127650200D02*
X93550000Y-127651700D01*
X84015000Y-92720000D02*
X85328400Y-92720000D01*
X101050000Y-127651700D02*
X99550000Y-127651700D01*
X88234300Y-123385100D02*
X92050000Y-127200800D01*
X86291800Y-109520000D02*
X86777700Y-109034100D01*
X95050000Y-127650200D02*
X95050000Y-127651700D01*
X84015000Y-111920000D02*
X85416700Y-111920000D01*
X85416700Y-92720000D02*
X85610100Y-92720000D01*
X85537500Y-106999200D02*
X85416700Y-107120000D01*
X84015000Y-90320000D02*
X85416700Y-90320000D01*
X88030000Y-104410000D02*
X89287050Y-105667050D01*
X85415000Y-99920000D02*
X85415200Y-99920000D01*
X92050000Y-126750000D02*
X92050000Y-127200800D01*
X106875000Y-115050000D02*
X106875000Y-124004500D01*
X93550000Y-127650200D02*
X93551500Y-127651700D01*
X85415200Y-99920000D02*
X85416700Y-99920000D01*
X85727500Y-92837400D02*
X86626700Y-93736600D01*
X99550000Y-126750000D02*
X99550000Y-127651700D01*
X86626700Y-93736600D02*
X86626700Y-99920000D01*
X85610100Y-92720000D02*
X85727500Y-92837400D01*
X84015000Y-107120000D02*
X85416700Y-107120000D01*
X85328400Y-92720000D02*
X85416700Y-92720000D01*
X89287050Y-105667050D02*
X89287050Y-105717050D01*
X95050000Y-127650000D02*
X95050000Y-127650200D01*
X84015000Y-104720000D02*
X85858100Y-104720000D01*
X93550000Y-126750000D02*
X93550000Y-127650000D01*
X102902500Y-127977000D02*
X101375300Y-127977000D01*
X93780994Y-108240994D02*
X93815506Y-108240994D01*
X84015000Y-109520000D02*
X86291800Y-109520000D01*
X90694362Y-105119850D02*
X90679850Y-105119850D01*
X92050000Y-127200800D02*
X92050000Y-127651700D01*
X96548500Y-127651700D02*
X96550000Y-127650200D01*
X96550000Y-126750000D02*
X96550000Y-127650200D01*
X86777700Y-109034100D02*
X86291800Y-109520000D01*
X85416700Y-111920000D02*
X88234300Y-114737600D01*
X85416700Y-98045100D02*
X85416700Y-98320000D01*
X109415000Y-107430000D02*
X109415000Y-104890000D01*
X85618500Y-97843300D02*
X85568100Y-97893700D01*
X84015000Y-98320000D02*
X84015000Y-99120000D01*
X88445500Y-95448000D02*
X88481100Y-95483600D01*
X88445500Y-95448000D02*
X92790700Y-99793200D01*
X92790700Y-99793200D02*
X92790700Y-105126500D01*
X102550000Y-108460000D02*
X102550000Y-126750000D01*
X85568100Y-97893700D02*
X85618500Y-97843300D01*
X92790700Y-105126500D02*
X94022900Y-106358700D01*
X99340000Y-105250000D02*
X99340000Y-102100000D01*
X94022900Y-106358700D02*
X94721600Y-106358700D01*
X99340000Y-105250000D02*
X102550000Y-108460000D01*
X84015000Y-98320000D02*
X85416700Y-98320000D01*
X88481100Y-95483600D02*
X88445500Y-95448000D01*
X85618500Y-97843300D02*
X85416700Y-98045100D01*
X106875000Y-104890000D02*
X106875000Y-107430000D01*
D17*
X101550000Y-112529200D02*
X94270800Y-105250000D01*
X109415000Y-99810000D02*
X109415000Y-102350000D01*
X94270800Y-105250000D02*
X94260000Y-105250000D01*
X101550000Y-126750000D02*
X101550000Y-112529200D01*
X109415000Y-97270000D02*
X109415000Y-99810000D01*
X102793400Y-127615200D02*
X104239400Y-126169200D01*
X106875000Y-97270000D02*
X106875000Y-99810000D01*
X104239400Y-104985600D02*
X106875000Y-102350000D01*
X102050000Y-127615200D02*
X102793400Y-127615200D01*
X104239400Y-126169200D02*
X104239400Y-104985600D01*
X106875000Y-102350000D02*
X106875000Y-99810000D01*
X102050000Y-126750000D02*
X102050000Y-127615200D01*
X91227800Y-103878500D02*
X91227800Y-104505800D01*
X100050000Y-123276300D02*
X100050000Y-126750000D01*
X91227800Y-104505800D02*
X100221200Y-113499200D01*
X100221200Y-123105100D02*
X100050000Y-123276300D01*
X100221200Y-113499200D02*
X100221200Y-123105100D01*
X100550000Y-113433900D02*
X100550000Y-126750000D01*
X92060600Y-104944500D02*
X100550000Y-113433900D01*
X92060600Y-103586000D02*
X92060600Y-104944500D01*
M02*
