%TF.GenerationSoftware,KiCad,Pcbnew,9.0.2*%
%TF.CreationDate,2025-06-24T15:08:36-04:00*%
%TF.ProjectId,uconsole-expansion-card-template,75636f6e-736f-46c6-952d-657870616e73,0.1*%
%TF.SameCoordinates,Original*%
%TF.FileFunction,Drillmap*%
%TF.FilePolarity,Positive*%
%FSLAX45Y45*%
G04 Gerber Fmt 4.5, Leading zero omitted, Abs format (unit mm)*
G04 Created by KiCad (PCBNEW 9.0.2) date 2025-06-24 15:08:36*
%MOMM*%
%LPD*%
G01*
G04 APERTURE LIST*
%ADD10C,0.200000*%
%ADD11C,0.500000*%
G04 APERTURE END LIST*
D10*
X8361500Y-11335000D02*
G75*
G02*
X8261500Y-11235000I0J100000D01*
G01*
X11688500Y-13900000D02*
X8788500Y-13900000D01*
X11688500Y-6200000D02*
G75*
G02*
X11838500Y-6350000I0J-150000D01*
G01*
X8261500Y-8865000D02*
G75*
G02*
X8361500Y-8765000I100000J0D01*
G01*
X8361500Y-8765000D02*
X8588500Y-8765000D01*
X8638500Y-13750000D02*
X8638500Y-11385000D01*
X8638500Y-8715000D02*
X8638500Y-6350000D01*
X8261500Y-11235000D02*
X8261500Y-9792000D01*
X8788500Y-6200000D02*
X11688500Y-6200000D01*
X11838500Y-6350000D02*
X11838500Y-13750000D01*
X8261500Y-9792000D02*
G75*
G02*
X8311500Y-9742000I50000J0D01*
G01*
X8561500Y-9592000D02*
G75*
G02*
X8561500Y-9742000I0J-75000D01*
G01*
X8638500Y-8715000D02*
G75*
G02*
X8588500Y-8765000I-50000J0D01*
G01*
X8561500Y-9742000D02*
X8311500Y-9742000D01*
X8311500Y-9592000D02*
G75*
G02*
X8261500Y-9542000I0J50000D01*
G01*
X8638500Y-6350000D02*
G75*
G02*
X8788500Y-6200000I150000J0D01*
G01*
X8261500Y-9542000D02*
X8261500Y-8865000D01*
X8588500Y-11335000D02*
G75*
G02*
X8638500Y-11385000I0J-50000D01*
G01*
X8588500Y-11335000D02*
X8361500Y-11335000D01*
X8311500Y-9592000D02*
X8561500Y-9592000D01*
X8788500Y-13900000D02*
G75*
G02*
X8638500Y-13750000I0J150000D01*
G01*
X11838500Y-13750000D02*
G75*
G02*
X11688500Y-13900000I-150000J0D01*
G01*
D11*
X10888500Y-6550000D02*
X11388500Y-7050000D01*
X11388500Y-6550000D02*
X10888500Y-7050000D01*
X10888500Y-13050000D02*
X11388500Y-13550000D01*
X11388500Y-13050000D02*
X10888500Y-13550000D01*
D10*
X8512277Y-14221484D02*
X8512277Y-14021484D01*
X8512277Y-14021484D02*
X8559896Y-14021484D01*
X8559896Y-14021484D02*
X8588467Y-14031008D01*
X8588467Y-14031008D02*
X8607515Y-14050055D01*
X8607515Y-14050055D02*
X8617039Y-14069103D01*
X8617039Y-14069103D02*
X8626563Y-14107198D01*
X8626563Y-14107198D02*
X8626563Y-14135769D01*
X8626563Y-14135769D02*
X8617039Y-14173865D01*
X8617039Y-14173865D02*
X8607515Y-14192912D01*
X8607515Y-14192912D02*
X8588467Y-14211960D01*
X8588467Y-14211960D02*
X8559896Y-14221484D01*
X8559896Y-14221484D02*
X8512277Y-14221484D01*
X8712277Y-14221484D02*
X8712277Y-14088150D01*
X8712277Y-14126246D02*
X8721801Y-14107198D01*
X8721801Y-14107198D02*
X8731324Y-14097674D01*
X8731324Y-14097674D02*
X8750372Y-14088150D01*
X8750372Y-14088150D02*
X8769420Y-14088150D01*
X8836086Y-14221484D02*
X8836086Y-14088150D01*
X8836086Y-14021484D02*
X8826563Y-14031008D01*
X8826563Y-14031008D02*
X8836086Y-14040531D01*
X8836086Y-14040531D02*
X8845610Y-14031008D01*
X8845610Y-14031008D02*
X8836086Y-14021484D01*
X8836086Y-14021484D02*
X8836086Y-14040531D01*
X8959896Y-14221484D02*
X8940848Y-14211960D01*
X8940848Y-14211960D02*
X8931324Y-14192912D01*
X8931324Y-14192912D02*
X8931324Y-14021484D01*
X9064658Y-14221484D02*
X9045610Y-14211960D01*
X9045610Y-14211960D02*
X9036086Y-14192912D01*
X9036086Y-14192912D02*
X9036086Y-14021484D01*
X9293229Y-14221484D02*
X9293229Y-14021484D01*
X9293229Y-14021484D02*
X9359896Y-14164341D01*
X9359896Y-14164341D02*
X9426563Y-14021484D01*
X9426563Y-14021484D02*
X9426563Y-14221484D01*
X9607515Y-14221484D02*
X9607515Y-14116722D01*
X9607515Y-14116722D02*
X9597991Y-14097674D01*
X9597991Y-14097674D02*
X9578944Y-14088150D01*
X9578944Y-14088150D02*
X9540848Y-14088150D01*
X9540848Y-14088150D02*
X9521801Y-14097674D01*
X9607515Y-14211960D02*
X9588467Y-14221484D01*
X9588467Y-14221484D02*
X9540848Y-14221484D01*
X9540848Y-14221484D02*
X9521801Y-14211960D01*
X9521801Y-14211960D02*
X9512277Y-14192912D01*
X9512277Y-14192912D02*
X9512277Y-14173865D01*
X9512277Y-14173865D02*
X9521801Y-14154817D01*
X9521801Y-14154817D02*
X9540848Y-14145293D01*
X9540848Y-14145293D02*
X9588467Y-14145293D01*
X9588467Y-14145293D02*
X9607515Y-14135769D01*
X9702753Y-14088150D02*
X9702753Y-14288150D01*
X9702753Y-14097674D02*
X9721801Y-14088150D01*
X9721801Y-14088150D02*
X9759896Y-14088150D01*
X9759896Y-14088150D02*
X9778944Y-14097674D01*
X9778944Y-14097674D02*
X9788467Y-14107198D01*
X9788467Y-14107198D02*
X9797991Y-14126246D01*
X9797991Y-14126246D02*
X9797991Y-14183388D01*
X9797991Y-14183388D02*
X9788467Y-14202436D01*
X9788467Y-14202436D02*
X9778944Y-14211960D01*
X9778944Y-14211960D02*
X9759896Y-14221484D01*
X9759896Y-14221484D02*
X9721801Y-14221484D01*
X9721801Y-14221484D02*
X9702753Y-14211960D01*
X9883705Y-14202436D02*
X9893229Y-14211960D01*
X9893229Y-14211960D02*
X9883705Y-14221484D01*
X9883705Y-14221484D02*
X9874182Y-14211960D01*
X9874182Y-14211960D02*
X9883705Y-14202436D01*
X9883705Y-14202436D02*
X9883705Y-14221484D01*
X9883705Y-14097674D02*
X9893229Y-14107198D01*
X9893229Y-14107198D02*
X9883705Y-14116722D01*
X9883705Y-14116722D02*
X9874182Y-14107198D01*
X9874182Y-14107198D02*
X9883705Y-14097674D01*
X9883705Y-14097674D02*
X9883705Y-14116722D01*
X8051500Y-14450000D02*
X8251500Y-14650000D01*
X8251500Y-14450000D02*
X8051500Y-14650000D01*
X8607515Y-14441484D02*
X8512277Y-14441484D01*
X8512277Y-14441484D02*
X8502753Y-14536722D01*
X8502753Y-14536722D02*
X8512277Y-14527198D01*
X8512277Y-14527198D02*
X8531324Y-14517674D01*
X8531324Y-14517674D02*
X8578944Y-14517674D01*
X8578944Y-14517674D02*
X8597991Y-14527198D01*
X8597991Y-14527198D02*
X8607515Y-14536722D01*
X8607515Y-14536722D02*
X8617039Y-14555769D01*
X8617039Y-14555769D02*
X8617039Y-14603388D01*
X8617039Y-14603388D02*
X8607515Y-14622436D01*
X8607515Y-14622436D02*
X8597991Y-14631960D01*
X8597991Y-14631960D02*
X8578944Y-14641484D01*
X8578944Y-14641484D02*
X8531324Y-14641484D01*
X8531324Y-14641484D02*
X8512277Y-14631960D01*
X8512277Y-14631960D02*
X8502753Y-14622436D01*
X8702753Y-14622436D02*
X8712277Y-14631960D01*
X8712277Y-14631960D02*
X8702753Y-14641484D01*
X8702753Y-14641484D02*
X8693229Y-14631960D01*
X8693229Y-14631960D02*
X8702753Y-14622436D01*
X8702753Y-14622436D02*
X8702753Y-14641484D01*
X8836086Y-14441484D02*
X8855134Y-14441484D01*
X8855134Y-14441484D02*
X8874182Y-14451008D01*
X8874182Y-14451008D02*
X8883705Y-14460531D01*
X8883705Y-14460531D02*
X8893229Y-14479579D01*
X8893229Y-14479579D02*
X8902753Y-14517674D01*
X8902753Y-14517674D02*
X8902753Y-14565293D01*
X8902753Y-14565293D02*
X8893229Y-14603388D01*
X8893229Y-14603388D02*
X8883705Y-14622436D01*
X8883705Y-14622436D02*
X8874182Y-14631960D01*
X8874182Y-14631960D02*
X8855134Y-14641484D01*
X8855134Y-14641484D02*
X8836086Y-14641484D01*
X8836086Y-14641484D02*
X8817039Y-14631960D01*
X8817039Y-14631960D02*
X8807515Y-14622436D01*
X8807515Y-14622436D02*
X8797991Y-14603388D01*
X8797991Y-14603388D02*
X8788467Y-14565293D01*
X8788467Y-14565293D02*
X8788467Y-14517674D01*
X8788467Y-14517674D02*
X8797991Y-14479579D01*
X8797991Y-14479579D02*
X8807515Y-14460531D01*
X8807515Y-14460531D02*
X8817039Y-14451008D01*
X8817039Y-14451008D02*
X8836086Y-14441484D01*
X9026563Y-14441484D02*
X9045610Y-14441484D01*
X9045610Y-14441484D02*
X9064658Y-14451008D01*
X9064658Y-14451008D02*
X9074182Y-14460531D01*
X9074182Y-14460531D02*
X9083705Y-14479579D01*
X9083705Y-14479579D02*
X9093229Y-14517674D01*
X9093229Y-14517674D02*
X9093229Y-14565293D01*
X9093229Y-14565293D02*
X9083705Y-14603388D01*
X9083705Y-14603388D02*
X9074182Y-14622436D01*
X9074182Y-14622436D02*
X9064658Y-14631960D01*
X9064658Y-14631960D02*
X9045610Y-14641484D01*
X9045610Y-14641484D02*
X9026563Y-14641484D01*
X9026563Y-14641484D02*
X9007515Y-14631960D01*
X9007515Y-14631960D02*
X8997991Y-14622436D01*
X8997991Y-14622436D02*
X8988467Y-14603388D01*
X8988467Y-14603388D02*
X8978944Y-14565293D01*
X8978944Y-14565293D02*
X8978944Y-14517674D01*
X8978944Y-14517674D02*
X8988467Y-14479579D01*
X8988467Y-14479579D02*
X8997991Y-14460531D01*
X8997991Y-14460531D02*
X9007515Y-14451008D01*
X9007515Y-14451008D02*
X9026563Y-14441484D01*
X9217039Y-14441484D02*
X9236086Y-14441484D01*
X9236086Y-14441484D02*
X9255134Y-14451008D01*
X9255134Y-14451008D02*
X9264658Y-14460531D01*
X9264658Y-14460531D02*
X9274182Y-14479579D01*
X9274182Y-14479579D02*
X9283705Y-14517674D01*
X9283705Y-14517674D02*
X9283705Y-14565293D01*
X9283705Y-14565293D02*
X9274182Y-14603388D01*
X9274182Y-14603388D02*
X9264658Y-14622436D01*
X9264658Y-14622436D02*
X9255134Y-14631960D01*
X9255134Y-14631960D02*
X9236086Y-14641484D01*
X9236086Y-14641484D02*
X9217039Y-14641484D01*
X9217039Y-14641484D02*
X9197991Y-14631960D01*
X9197991Y-14631960D02*
X9188467Y-14622436D01*
X9188467Y-14622436D02*
X9178944Y-14603388D01*
X9178944Y-14603388D02*
X9169420Y-14565293D01*
X9169420Y-14565293D02*
X9169420Y-14517674D01*
X9169420Y-14517674D02*
X9178944Y-14479579D01*
X9178944Y-14479579D02*
X9188467Y-14460531D01*
X9188467Y-14460531D02*
X9197991Y-14451008D01*
X9197991Y-14451008D02*
X9217039Y-14441484D01*
X9369420Y-14641484D02*
X9369420Y-14508150D01*
X9369420Y-14527198D02*
X9378944Y-14517674D01*
X9378944Y-14517674D02*
X9397991Y-14508150D01*
X9397991Y-14508150D02*
X9426563Y-14508150D01*
X9426563Y-14508150D02*
X9445610Y-14517674D01*
X9445610Y-14517674D02*
X9455134Y-14536722D01*
X9455134Y-14536722D02*
X9455134Y-14641484D01*
X9455134Y-14536722D02*
X9464658Y-14517674D01*
X9464658Y-14517674D02*
X9483705Y-14508150D01*
X9483705Y-14508150D02*
X9512277Y-14508150D01*
X9512277Y-14508150D02*
X9531325Y-14517674D01*
X9531325Y-14517674D02*
X9540848Y-14536722D01*
X9540848Y-14536722D02*
X9540848Y-14641484D01*
X9636086Y-14641484D02*
X9636086Y-14508150D01*
X9636086Y-14527198D02*
X9645610Y-14517674D01*
X9645610Y-14517674D02*
X9664658Y-14508150D01*
X9664658Y-14508150D02*
X9693229Y-14508150D01*
X9693229Y-14508150D02*
X9712277Y-14517674D01*
X9712277Y-14517674D02*
X9721801Y-14536722D01*
X9721801Y-14536722D02*
X9721801Y-14641484D01*
X9721801Y-14536722D02*
X9731325Y-14517674D01*
X9731325Y-14517674D02*
X9750372Y-14508150D01*
X9750372Y-14508150D02*
X9778944Y-14508150D01*
X9778944Y-14508150D02*
X9797991Y-14517674D01*
X9797991Y-14517674D02*
X9807515Y-14536722D01*
X9807515Y-14536722D02*
X9807515Y-14641484D01*
X10197991Y-14431960D02*
X10026563Y-14689103D01*
X10455134Y-14441484D02*
X10474182Y-14441484D01*
X10474182Y-14441484D02*
X10493229Y-14451008D01*
X10493229Y-14451008D02*
X10502753Y-14460531D01*
X10502753Y-14460531D02*
X10512277Y-14479579D01*
X10512277Y-14479579D02*
X10521801Y-14517674D01*
X10521801Y-14517674D02*
X10521801Y-14565293D01*
X10521801Y-14565293D02*
X10512277Y-14603388D01*
X10512277Y-14603388D02*
X10502753Y-14622436D01*
X10502753Y-14622436D02*
X10493229Y-14631960D01*
X10493229Y-14631960D02*
X10474182Y-14641484D01*
X10474182Y-14641484D02*
X10455134Y-14641484D01*
X10455134Y-14641484D02*
X10436087Y-14631960D01*
X10436087Y-14631960D02*
X10426563Y-14622436D01*
X10426563Y-14622436D02*
X10417039Y-14603388D01*
X10417039Y-14603388D02*
X10407515Y-14565293D01*
X10407515Y-14565293D02*
X10407515Y-14517674D01*
X10407515Y-14517674D02*
X10417039Y-14479579D01*
X10417039Y-14479579D02*
X10426563Y-14460531D01*
X10426563Y-14460531D02*
X10436087Y-14451008D01*
X10436087Y-14451008D02*
X10455134Y-14441484D01*
X10607515Y-14622436D02*
X10617039Y-14631960D01*
X10617039Y-14631960D02*
X10607515Y-14641484D01*
X10607515Y-14641484D02*
X10597991Y-14631960D01*
X10597991Y-14631960D02*
X10607515Y-14622436D01*
X10607515Y-14622436D02*
X10607515Y-14641484D01*
X10807515Y-14641484D02*
X10693229Y-14641484D01*
X10750372Y-14641484D02*
X10750372Y-14441484D01*
X10750372Y-14441484D02*
X10731325Y-14470055D01*
X10731325Y-14470055D02*
X10712277Y-14489103D01*
X10712277Y-14489103D02*
X10693229Y-14498627D01*
X10902753Y-14641484D02*
X10940848Y-14641484D01*
X10940848Y-14641484D02*
X10959896Y-14631960D01*
X10959896Y-14631960D02*
X10969420Y-14622436D01*
X10969420Y-14622436D02*
X10988468Y-14593865D01*
X10988468Y-14593865D02*
X10997991Y-14555769D01*
X10997991Y-14555769D02*
X10997991Y-14479579D01*
X10997991Y-14479579D02*
X10988468Y-14460531D01*
X10988468Y-14460531D02*
X10978944Y-14451008D01*
X10978944Y-14451008D02*
X10959896Y-14441484D01*
X10959896Y-14441484D02*
X10921801Y-14441484D01*
X10921801Y-14441484D02*
X10902753Y-14451008D01*
X10902753Y-14451008D02*
X10893229Y-14460531D01*
X10893229Y-14460531D02*
X10883706Y-14479579D01*
X10883706Y-14479579D02*
X10883706Y-14527198D01*
X10883706Y-14527198D02*
X10893229Y-14546246D01*
X10893229Y-14546246D02*
X10902753Y-14555769D01*
X10902753Y-14555769D02*
X10921801Y-14565293D01*
X10921801Y-14565293D02*
X10959896Y-14565293D01*
X10959896Y-14565293D02*
X10978944Y-14555769D01*
X10978944Y-14555769D02*
X10988468Y-14546246D01*
X10988468Y-14546246D02*
X10997991Y-14527198D01*
X11169420Y-14441484D02*
X11131325Y-14441484D01*
X11131325Y-14441484D02*
X11112277Y-14451008D01*
X11112277Y-14451008D02*
X11102753Y-14460531D01*
X11102753Y-14460531D02*
X11083706Y-14489103D01*
X11083706Y-14489103D02*
X11074182Y-14527198D01*
X11074182Y-14527198D02*
X11074182Y-14603388D01*
X11074182Y-14603388D02*
X11083706Y-14622436D01*
X11083706Y-14622436D02*
X11093229Y-14631960D01*
X11093229Y-14631960D02*
X11112277Y-14641484D01*
X11112277Y-14641484D02*
X11150372Y-14641484D01*
X11150372Y-14641484D02*
X11169420Y-14631960D01*
X11169420Y-14631960D02*
X11178944Y-14622436D01*
X11178944Y-14622436D02*
X11188467Y-14603388D01*
X11188467Y-14603388D02*
X11188467Y-14555769D01*
X11188467Y-14555769D02*
X11178944Y-14536722D01*
X11178944Y-14536722D02*
X11169420Y-14527198D01*
X11169420Y-14527198D02*
X11150372Y-14517674D01*
X11150372Y-14517674D02*
X11112277Y-14517674D01*
X11112277Y-14517674D02*
X11093229Y-14527198D01*
X11093229Y-14527198D02*
X11083706Y-14536722D01*
X11083706Y-14536722D02*
X11074182Y-14555769D01*
X11283706Y-14641484D02*
X11321801Y-14641484D01*
X11321801Y-14641484D02*
X11340848Y-14631960D01*
X11340848Y-14631960D02*
X11350372Y-14622436D01*
X11350372Y-14622436D02*
X11369420Y-14593865D01*
X11369420Y-14593865D02*
X11378944Y-14555769D01*
X11378944Y-14555769D02*
X11378944Y-14479579D01*
X11378944Y-14479579D02*
X11369420Y-14460531D01*
X11369420Y-14460531D02*
X11359896Y-14451008D01*
X11359896Y-14451008D02*
X11340848Y-14441484D01*
X11340848Y-14441484D02*
X11302753Y-14441484D01*
X11302753Y-14441484D02*
X11283706Y-14451008D01*
X11283706Y-14451008D02*
X11274182Y-14460531D01*
X11274182Y-14460531D02*
X11264658Y-14479579D01*
X11264658Y-14479579D02*
X11264658Y-14527198D01*
X11264658Y-14527198D02*
X11274182Y-14546246D01*
X11274182Y-14546246D02*
X11283706Y-14555769D01*
X11283706Y-14555769D02*
X11302753Y-14565293D01*
X11302753Y-14565293D02*
X11340848Y-14565293D01*
X11340848Y-14565293D02*
X11359896Y-14555769D01*
X11359896Y-14555769D02*
X11369420Y-14546246D01*
X11369420Y-14546246D02*
X11378944Y-14527198D01*
X11455134Y-14441484D02*
X11455134Y-14479579D01*
X11531325Y-14441484D02*
X11531325Y-14479579D01*
X11826563Y-14717674D02*
X11817039Y-14708150D01*
X11817039Y-14708150D02*
X11797991Y-14679579D01*
X11797991Y-14679579D02*
X11788468Y-14660531D01*
X11788468Y-14660531D02*
X11778944Y-14631960D01*
X11778944Y-14631960D02*
X11769420Y-14584341D01*
X11769420Y-14584341D02*
X11769420Y-14546246D01*
X11769420Y-14546246D02*
X11778944Y-14498627D01*
X11778944Y-14498627D02*
X11788468Y-14470055D01*
X11788468Y-14470055D02*
X11797991Y-14451008D01*
X11797991Y-14451008D02*
X11817039Y-14422436D01*
X11817039Y-14422436D02*
X11826563Y-14412912D01*
X11893229Y-14460531D02*
X11902753Y-14451008D01*
X11902753Y-14451008D02*
X11921801Y-14441484D01*
X11921801Y-14441484D02*
X11969420Y-14441484D01*
X11969420Y-14441484D02*
X11988468Y-14451008D01*
X11988468Y-14451008D02*
X11997991Y-14460531D01*
X11997991Y-14460531D02*
X12007515Y-14479579D01*
X12007515Y-14479579D02*
X12007515Y-14498627D01*
X12007515Y-14498627D02*
X11997991Y-14527198D01*
X11997991Y-14527198D02*
X11883706Y-14641484D01*
X11883706Y-14641484D02*
X12007515Y-14641484D01*
X12245610Y-14641484D02*
X12245610Y-14441484D01*
X12331325Y-14641484D02*
X12331325Y-14536722D01*
X12331325Y-14536722D02*
X12321801Y-14517674D01*
X12321801Y-14517674D02*
X12302753Y-14508150D01*
X12302753Y-14508150D02*
X12274182Y-14508150D01*
X12274182Y-14508150D02*
X12255134Y-14517674D01*
X12255134Y-14517674D02*
X12245610Y-14527198D01*
X12455134Y-14641484D02*
X12436087Y-14631960D01*
X12436087Y-14631960D02*
X12426563Y-14622436D01*
X12426563Y-14622436D02*
X12417039Y-14603388D01*
X12417039Y-14603388D02*
X12417039Y-14546246D01*
X12417039Y-14546246D02*
X12426563Y-14527198D01*
X12426563Y-14527198D02*
X12436087Y-14517674D01*
X12436087Y-14517674D02*
X12455134Y-14508150D01*
X12455134Y-14508150D02*
X12483706Y-14508150D01*
X12483706Y-14508150D02*
X12502753Y-14517674D01*
X12502753Y-14517674D02*
X12512277Y-14527198D01*
X12512277Y-14527198D02*
X12521801Y-14546246D01*
X12521801Y-14546246D02*
X12521801Y-14603388D01*
X12521801Y-14603388D02*
X12512277Y-14622436D01*
X12512277Y-14622436D02*
X12502753Y-14631960D01*
X12502753Y-14631960D02*
X12483706Y-14641484D01*
X12483706Y-14641484D02*
X12455134Y-14641484D01*
X12636087Y-14641484D02*
X12617039Y-14631960D01*
X12617039Y-14631960D02*
X12607515Y-14612912D01*
X12607515Y-14612912D02*
X12607515Y-14441484D01*
X12788468Y-14631960D02*
X12769420Y-14641484D01*
X12769420Y-14641484D02*
X12731325Y-14641484D01*
X12731325Y-14641484D02*
X12712277Y-14631960D01*
X12712277Y-14631960D02*
X12702753Y-14612912D01*
X12702753Y-14612912D02*
X12702753Y-14536722D01*
X12702753Y-14536722D02*
X12712277Y-14517674D01*
X12712277Y-14517674D02*
X12731325Y-14508150D01*
X12731325Y-14508150D02*
X12769420Y-14508150D01*
X12769420Y-14508150D02*
X12788468Y-14517674D01*
X12788468Y-14517674D02*
X12797991Y-14536722D01*
X12797991Y-14536722D02*
X12797991Y-14555769D01*
X12797991Y-14555769D02*
X12702753Y-14574817D01*
X12874182Y-14631960D02*
X12893230Y-14641484D01*
X12893230Y-14641484D02*
X12931325Y-14641484D01*
X12931325Y-14641484D02*
X12950372Y-14631960D01*
X12950372Y-14631960D02*
X12959896Y-14612912D01*
X12959896Y-14612912D02*
X12959896Y-14603388D01*
X12959896Y-14603388D02*
X12950372Y-14584341D01*
X12950372Y-14584341D02*
X12931325Y-14574817D01*
X12931325Y-14574817D02*
X12902753Y-14574817D01*
X12902753Y-14574817D02*
X12883706Y-14565293D01*
X12883706Y-14565293D02*
X12874182Y-14546246D01*
X12874182Y-14546246D02*
X12874182Y-14536722D01*
X12874182Y-14536722D02*
X12883706Y-14517674D01*
X12883706Y-14517674D02*
X12902753Y-14508150D01*
X12902753Y-14508150D02*
X12931325Y-14508150D01*
X12931325Y-14508150D02*
X12950372Y-14517674D01*
X13026563Y-14717674D02*
X13036087Y-14708150D01*
X13036087Y-14708150D02*
X13055134Y-14679579D01*
X13055134Y-14679579D02*
X13064658Y-14660531D01*
X13064658Y-14660531D02*
X13074182Y-14631960D01*
X13074182Y-14631960D02*
X13083706Y-14584341D01*
X13083706Y-14584341D02*
X13083706Y-14546246D01*
X13083706Y-14546246D02*
X13074182Y-14498627D01*
X13074182Y-14498627D02*
X13064658Y-14470055D01*
X13064658Y-14470055D02*
X13055134Y-14451008D01*
X13055134Y-14451008D02*
X13036087Y-14422436D01*
X13036087Y-14422436D02*
X13026563Y-14412912D01*
X13388468Y-14717674D02*
X13378944Y-14708150D01*
X13378944Y-14708150D02*
X13359896Y-14679579D01*
X13359896Y-14679579D02*
X13350372Y-14660531D01*
X13350372Y-14660531D02*
X13340849Y-14631960D01*
X13340849Y-14631960D02*
X13331325Y-14584341D01*
X13331325Y-14584341D02*
X13331325Y-14546246D01*
X13331325Y-14546246D02*
X13340849Y-14498627D01*
X13340849Y-14498627D02*
X13350372Y-14470055D01*
X13350372Y-14470055D02*
X13359896Y-14451008D01*
X13359896Y-14451008D02*
X13378944Y-14422436D01*
X13378944Y-14422436D02*
X13388468Y-14412912D01*
X13464658Y-14508150D02*
X13464658Y-14641484D01*
X13464658Y-14527198D02*
X13474182Y-14517674D01*
X13474182Y-14517674D02*
X13493230Y-14508150D01*
X13493230Y-14508150D02*
X13521801Y-14508150D01*
X13521801Y-14508150D02*
X13540849Y-14517674D01*
X13540849Y-14517674D02*
X13550372Y-14536722D01*
X13550372Y-14536722D02*
X13550372Y-14641484D01*
X13674182Y-14641484D02*
X13655134Y-14631960D01*
X13655134Y-14631960D02*
X13645611Y-14622436D01*
X13645611Y-14622436D02*
X13636087Y-14603388D01*
X13636087Y-14603388D02*
X13636087Y-14546246D01*
X13636087Y-14546246D02*
X13645611Y-14527198D01*
X13645611Y-14527198D02*
X13655134Y-14517674D01*
X13655134Y-14517674D02*
X13674182Y-14508150D01*
X13674182Y-14508150D02*
X13702753Y-14508150D01*
X13702753Y-14508150D02*
X13721801Y-14517674D01*
X13721801Y-14517674D02*
X13731325Y-14527198D01*
X13731325Y-14527198D02*
X13740849Y-14546246D01*
X13740849Y-14546246D02*
X13740849Y-14603388D01*
X13740849Y-14603388D02*
X13731325Y-14622436D01*
X13731325Y-14622436D02*
X13721801Y-14631960D01*
X13721801Y-14631960D02*
X13702753Y-14641484D01*
X13702753Y-14641484D02*
X13674182Y-14641484D01*
X13797992Y-14508150D02*
X13874182Y-14508150D01*
X13826563Y-14441484D02*
X13826563Y-14612912D01*
X13826563Y-14612912D02*
X13836087Y-14631960D01*
X13836087Y-14631960D02*
X13855134Y-14641484D01*
X13855134Y-14641484D02*
X13874182Y-14641484D01*
X14093230Y-14508150D02*
X14093230Y-14708150D01*
X14093230Y-14517674D02*
X14112277Y-14508150D01*
X14112277Y-14508150D02*
X14150373Y-14508150D01*
X14150373Y-14508150D02*
X14169420Y-14517674D01*
X14169420Y-14517674D02*
X14178944Y-14527198D01*
X14178944Y-14527198D02*
X14188468Y-14546246D01*
X14188468Y-14546246D02*
X14188468Y-14603388D01*
X14188468Y-14603388D02*
X14178944Y-14622436D01*
X14178944Y-14622436D02*
X14169420Y-14631960D01*
X14169420Y-14631960D02*
X14150373Y-14641484D01*
X14150373Y-14641484D02*
X14112277Y-14641484D01*
X14112277Y-14641484D02*
X14093230Y-14631960D01*
X14302753Y-14641484D02*
X14283706Y-14631960D01*
X14283706Y-14631960D02*
X14274182Y-14612912D01*
X14274182Y-14612912D02*
X14274182Y-14441484D01*
X14464658Y-14641484D02*
X14464658Y-14536722D01*
X14464658Y-14536722D02*
X14455134Y-14517674D01*
X14455134Y-14517674D02*
X14436087Y-14508150D01*
X14436087Y-14508150D02*
X14397992Y-14508150D01*
X14397992Y-14508150D02*
X14378944Y-14517674D01*
X14464658Y-14631960D02*
X14445611Y-14641484D01*
X14445611Y-14641484D02*
X14397992Y-14641484D01*
X14397992Y-14641484D02*
X14378944Y-14631960D01*
X14378944Y-14631960D02*
X14369420Y-14612912D01*
X14369420Y-14612912D02*
X14369420Y-14593865D01*
X14369420Y-14593865D02*
X14378944Y-14574817D01*
X14378944Y-14574817D02*
X14397992Y-14565293D01*
X14397992Y-14565293D02*
X14445611Y-14565293D01*
X14445611Y-14565293D02*
X14464658Y-14555769D01*
X14531325Y-14508150D02*
X14607515Y-14508150D01*
X14559896Y-14441484D02*
X14559896Y-14612912D01*
X14559896Y-14612912D02*
X14569420Y-14631960D01*
X14569420Y-14631960D02*
X14588468Y-14641484D01*
X14588468Y-14641484D02*
X14607515Y-14641484D01*
X14750373Y-14631960D02*
X14731325Y-14641484D01*
X14731325Y-14641484D02*
X14693230Y-14641484D01*
X14693230Y-14641484D02*
X14674182Y-14631960D01*
X14674182Y-14631960D02*
X14664658Y-14612912D01*
X14664658Y-14612912D02*
X14664658Y-14536722D01*
X14664658Y-14536722D02*
X14674182Y-14517674D01*
X14674182Y-14517674D02*
X14693230Y-14508150D01*
X14693230Y-14508150D02*
X14731325Y-14508150D01*
X14731325Y-14508150D02*
X14750373Y-14517674D01*
X14750373Y-14517674D02*
X14759896Y-14536722D01*
X14759896Y-14536722D02*
X14759896Y-14555769D01*
X14759896Y-14555769D02*
X14664658Y-14574817D01*
X14931325Y-14641484D02*
X14931325Y-14441484D01*
X14931325Y-14631960D02*
X14912277Y-14641484D01*
X14912277Y-14641484D02*
X14874182Y-14641484D01*
X14874182Y-14641484D02*
X14855134Y-14631960D01*
X14855134Y-14631960D02*
X14845611Y-14622436D01*
X14845611Y-14622436D02*
X14836087Y-14603388D01*
X14836087Y-14603388D02*
X14836087Y-14546246D01*
X14836087Y-14546246D02*
X14845611Y-14527198D01*
X14845611Y-14527198D02*
X14855134Y-14517674D01*
X14855134Y-14517674D02*
X14874182Y-14508150D01*
X14874182Y-14508150D02*
X14912277Y-14508150D01*
X14912277Y-14508150D02*
X14931325Y-14517674D01*
X15007515Y-14717674D02*
X15017039Y-14708150D01*
X15017039Y-14708150D02*
X15036087Y-14679579D01*
X15036087Y-14679579D02*
X15045611Y-14660531D01*
X15045611Y-14660531D02*
X15055134Y-14631960D01*
X15055134Y-14631960D02*
X15064658Y-14584341D01*
X15064658Y-14584341D02*
X15064658Y-14546246D01*
X15064658Y-14546246D02*
X15055134Y-14498627D01*
X15055134Y-14498627D02*
X15045611Y-14470055D01*
X15045611Y-14470055D02*
X15036087Y-14451008D01*
X15036087Y-14451008D02*
X15017039Y-14422436D01*
X15017039Y-14422436D02*
X15007515Y-14412912D01*
M02*
